<?xml version="1.0" encoding="UTF-8" standalone="no"?>
<!-- Created with Inkscape (http://www.inkscape.org/) -->

<svg
   width="155.07765mm"
   height="154.81154mm"
   viewBox="0 0 155.07765 154.81154"
   version="1.1"
   id="svg1"
   xml:space="preserve"
   inkscape:version="1.3.2 (091e20e, 2023-11-25)"
   sodipodi:docname="shopfire.svg"
   inkscape:export-filename="shopfire.png"
   inkscape:export-xdpi="96"
   inkscape:export-ydpi="96"
   xmlns:inkscape="http://www.inkscape.org/namespaces/inkscape"
   xmlns:sodipodi="http://sodipodi.sourceforge.net/DTD/sodipodi-0.dtd"
   xmlns="http://www.w3.org/2000/svg"
   xmlns:svg="http://www.w3.org/2000/svg"><sodipodi:namedview
     id="namedview1"
     pagecolor="#ffffff"
     bordercolor="#111111"
     borderopacity="1"
     inkscape:showpageshadow="0"
     inkscape:pageopacity="0"
     inkscape:pagecheckerboard="1"
     inkscape:deskcolor="#d1d1d1"
     inkscape:document-units="mm"
     inkscape:zoom="1.1039267"
     inkscape:cx="255.45175"
     inkscape:cy="321.57933"
     inkscape:window-width="1920"
     inkscape:window-height="1027"
     inkscape:window-x="0"
     inkscape:window-y="25"
     inkscape:window-maximized="1"
     inkscape:current-layer="g1" /><defs
     id="defs1" /><g
     inkscape:label="Layer 1"
     inkscape:groupmode="layer"
     id="layer1"
     transform="translate(-37.281455,-56.95616)"><g
       id="g1"
       transform="translate(-16.849514,-10.971776)"><rect
         style="fill:#f9f9f9;stroke-width:2"
         id="rect3"
         width="130.86241"
         height="132.54013"
         x="66.222511"
         y="76.1633"
         ry="0.25715101" /><path
         style="fill:#3495d0"
         d="m 78.698901,222.18496 -2.816442,-0.47481 -2.078349,-0.58671 -2.078349,-0.58672 -0.79375,-0.28359 -0.79375,-0.28359 -2.796251,-1.94296 -2.796251,-1.94295 -2.064503,-2.04503 -2.064502,-2.04504 -1.230906,-1.85208 -1.230906,-1.85208 -0.612738,-1.267 -0.612738,-1.26699 -0.651267,-1.64342 -0.651267,-1.64343 -0.647639,-2.64583 -0.647639,-2.64583 -3.43e-4,-51.10161 -3.42e-4,-51.101603 0.532429,-2.587651 0.53243,-2.58765 0.516093,-1.670916 0.516093,-1.670915 0.91768,-1.986198 0.91768,-1.986197 1.274943,-1.906635 1.274943,-1.906634 2.248959,-2.267928 2.248958,-2.267927 1.714021,-1.116846 1.714021,-1.116847 2.453312,-1.075939 2.453311,-1.075938 2.505444,-0.635558 2.505445,-0.635558 2.68182,-0.275207 2.681819,-0.275207 48.32457,0.0052 48.32457,0.0052 1.83826,0.265675 1.83825,0.265676 2.09584,0.521624 2.09584,0.521624 2.20362,0.898409 2.20363,0.898409 2.67173,1.750541 2.67173,1.75054 2.30305,2.328614 2.30305,2.328614 1.59534,2.365834 1.59534,2.365834 0.57164,1.322916 0.57163,1.322917 0.40055,1.322917 0.40056,1.322916 0.58757,2.116667 0.58757,2.116667 0.10196,13.21843 0.10195,13.21842 -0.5812,-0.51842 -0.5812,-0.51843 -2.99702,-3.30729 -2.99701,-3.30729 -6.52605,-6.61458 -6.52606,-6.61459 -0.20401,0.661458 -0.20402,0.661462 -0.0264,-0.754066 -0.0264,-0.754062 -0.88399,-0.883988 -0.88399,-0.883988 -0.72748,-0.182586 -0.72748,-0.182586 -1.03334,0.309594 -1.03333,0.309594 -0.47165,0.91934 -0.47165,0.919339 -5.28407,5.060999 -5.28407,5.06101 -0.30943,1.08695 -0.30944,1.08695 -0.0573,1.32292 -0.0573,1.32291 -0.11004,-0.56003 -0.11004,-0.56003 -2.4227,-2.61497 -2.4227,-2.61497 -4.06371,-4.10104 -4.06372,-4.101043 -0.96102,-0.735618 -0.96103,-0.735617 -0.32613,0.125149 -0.32613,0.125149 -0.83191,-1.296416 -0.83191,-1.296416 -1.63851,-1.532699 -1.63852,-1.532699 -1.53166,-1.016603 -1.53166,-1.016602 -2.16733,-1.012334 -2.16734,-1.012334 -0.99219,-0.183322 -0.99219,-0.183322 0.005,0.360175 0.005,0.360175 0.81463,1.455208 0.81462,1.455209 0.6585,1.719791 0.65849,1.719792 -0.006,2.181063 -0.006,2.181063 -0.16739,0.270851 -0.1674,0.27086 -2.2967,-2.145922 -2.29669,-2.145918 -0.87123,-0.426551 -0.87122,-0.426552 -0.71628,0.442211 -0.71627,0.44221 0.0614,0.604384 0.0614,0.604385 -0.36354,-0.648128 -0.36354,-0.648128 0.12176,-0.317297 0.12176,-0.317297 -0.3235,-0.199935 -0.3235,-0.199935 0.18878,0.305464 0.18879,0.305464 h -0.12177 -0.12177 l -0.51031,-0.859896 -0.51031,-0.859896 -1.38436,-1.510301 -1.38435,-1.510302 -1.90179,-1.423603 -1.90178,-1.423603 -2.25601,-1.325877 -2.25601,-1.325877 -2.48141,-1.101427 -2.4814,-1.101428 -1.51848,-0.393479 -1.51849,-0.393478 h -0.16024 -0.16025 v 0.272947 0.272946 l 1.44883,1.924946 1.44883,1.924946 0.93652,2.026981 0.93653,2.02698 0.4222,2.041547 0.4222,2.041546 -0.12124,2.398685 -0.12124,2.398685 -0.71069,1.594093 -0.7107,1.59409 -2.1966,-2.13326 -2.19661,-2.133264 -1.39411,-1.00157 -1.39411,-1.001569 0.17951,0.350115 0.17951,0.350115 -0.61237,-0.793751 -0.61237,-0.79375 -1.02827,-1.124277 -1.02826,-1.124277 -1.78967,-1.326738 -1.78967,-1.326738 -2.29062,-1.073419 -2.29061,-1.073418 -0.913287,-0.148206 -0.913287,-0.148206 v 0.324504 0.324504 l 0.544903,0.765246 0.544904,0.765246 0.953827,2.053723 0.95382,2.053723 0.0162,2.910417 0.0162,2.91042 -0.61498,1.79938 -0.61497,1.79939 -1.309473,1.30947 -1.309469,1.30947 h -0.222539 -0.222538 l -0.182646,-0.99219 -0.182646,-0.99219 -0.493381,-1.12448 -0.49338,-1.12448 -0.213315,8.1e-4 -0.213315,8.1e-4 -0.601104,2.44659 -0.601103,2.44659 0.0058,1.64073 0.0058,1.64074 0.371021,1.42445 0.371021,1.42444 0.798014,1.58086 0.798013,1.58085 0.35232,0.28791 0.352319,0.2879 1.389063,0.40961 1.389062,0.40961 0.03754,-0.18418 0.03754,-0.18417 0.0286,-1.48907 0.0286,-1.48906 1.19864,-1.28906 1.19864,-1.28906 0.74903,-0.98961 0.74902,-0.98961 0.20742,0.12819 0.20742,0.12819 0.15699,-0.40909 0.15699,-0.4091 -0.28795,0.17796 -0.28795,0.17797 0.30029,-0.5611 0.30028,-0.5611 h 0.1386 0.1386 l -0.16807,0.33073 -0.16806,0.33073 0.48323,-0.54299 0.48322,-0.543 1.19058,0.077 1.19058,0.077 0.33675,0.0471 0.33676,0.0471 0.16126,0.64251 0.16126,0.6425 0.21144,-0.34212 0.21144,-0.34212 -0.10978,1.17687 -0.10978,1.17688 0.25551,-0.66146 0.25552,-0.66146 -0.13176,3.30729 -0.13176,3.3073 1.56257,0.74647 1.56257,0.74647 0.32998,1.17857 0.32998,1.17858 0.22829,0.14109 0.22829,0.14109 v 0.85751 0.85751 l 0.31604,0.31604 0.31604,0.31604 -0.56238,0.52394 -0.56239,0.52394 -14.293121,0.0728 -14.293144,0.0728 -1.07093,1.04589 -1.070929,1.04588 v 1.05343 1.05342 l 0.381792,1.47257 0.381791,1.47256 0.839769,3.83646 0.839769,3.83646 0.614001,1.98437 0.614001,1.98438 0.560884,2.51354 0.560883,2.51354 0.486142,2.11667 0.486143,2.11667 0.693961,2.36083 0.693962,2.36083 1.077431,4.78292 1.077431,4.78292 0.525334,1.5875 0.525333,1.5875 0.972249,1.0458 0.972249,1.04579 -0.529167,-0.37978 -0.529166,-0.37978 0.484109,0.56875 0.484109,0.56874 -0.291747,0.54513 -0.291747,0.54514 0.375158,0.86594 0.375158,0.86593 2.673626,2.64087 2.673606,2.64087 v 0.22913 0.22913 l -1.277207,1.14834 -1.277228,1.14834 -0.871651,1.63538 -0.87165,1.63538 -0.361524,1.35774 -0.361523,1.35774 -0.0031,1.24375 -0.0031,1.24375 0.29314,1.36686 0.293139,1.36686 0.499831,1.12995 0.49983,1.12995 0.992968,1.19868 0.992967,1.19868 1.037457,0.82251 1.037441,0.82251 0.28546,0.49931 0.28546,0.4993 2.22659,2.4702 2.22659,2.47019 3.19737,3.31467 3.19737,3.31467 1.98438,2.20878 1.98437,2.20878 2.58036,2.3479 2.58036,2.34791 -19.91057,-0.0247 -19.910555,-0.0247 z"
         id="path2"
         sodipodi:nodetypes="ccccccccccccccccccccccccccccccccccccccccccccccccccccccccccccccccccccccccccccccccccccccccccccccccccccccccccccccccccccccccccccccccccccccccccccccccccccccccccccccccccccccccccccccccccccccccccccccccccccccccccccccccccccccccccccccccccccccccccccccccccccccccccccccccccccccccccccccccccccccccccccccccccccccccccccccccccccccccccccccc" /><path
         style="fill:#1d4155"
         d="m 118.77253,220.37621 -2.59677,-2.36283 -1.98437,-2.20878 -1.98438,-2.20878 -3.19737,-3.31467 -3.19737,-3.31467 -2.16573,-2.43505 -2.16573,-2.43505 -0.2593,-0.16025 -0.25929,-0.16025 v -0.24005 -0.24004 l 0.8599,0.49976 0.85989,0.49976 1.65507,0.31977 1.65507,0.31977 1.97497,-0.12675 1.97498,-0.12675 1.74909,-0.86107 1.7491,-0.86108 1.4068,-1.4068 1.40681,-1.40681 0.81558,-1.67497 0.81559,-1.67497 0.29638,-1.95806 0.29639,-1.95806 -0.18177,-1.69734 -0.18177,-1.69734 -0.9581,-1.86254 -0.9581,-1.86255 -1.46638,-1.31062 -1.46638,-1.31063 -1.71979,-0.84313 -1.71979,-0.84313 -3.175,-0.001 -3.175,-10e-4 -1.53552,0.80491 -1.53553,0.80491 -2.879424,-2.92158 -2.879426,-2.92157 -0.281441,-0.74493 -0.281442,-0.74493 0.28571,-0.53385 0.285709,-0.53385 -0.484109,-0.55718 -0.484109,-0.55718 0.926041,0.64534 0.926042,0.64533 h 33.998959 33.99896 l 1.41332,-0.78286 1.41332,-0.78285 0.4595,-0.58416 0.45949,-0.58415 0.57639,-2.86632 0.57639,-2.86633 0.65923,-3.96875 0.65923,-3.96875 0.24791,-1.32291 0.2479,-1.32292 0.95997,-6.08542 0.95997,-6.08541 1.18028,-7.14375 1.18027,-7.14375 0.66439,-3.70417 0.66439,-3.70417 0.38622,-2.11666 0.38622,-2.11667 0.17456,-1.68555 0.17456,-1.68556 3.36883,-3.28464 3.36884,-3.28465 2.11264,-1.69797 2.11264,-1.69798 0.43062,-1.07624 0.43063,-1.07624 v -0.397625 -0.39762 l 0.59531,0.392203 0.59531,0.392202 7.14375,7.37375 7.14375,7.37374 2.45586,2.68046 2.45585,2.68047 -0.0782,38.44146 -0.0782,38.44146 -0.86019,3.175 -0.8602,3.175 -1.43269,2.91041 -1.43268,2.91042 -1.72121,2.16019 -1.7212,2.16018 -2.00025,1.66924 -2.00024,1.66924 -2.41649,1.38333 -2.41649,1.38333 -2.22483,0.80504 -2.22484,0.80504 -2.96681,0.57906 -2.96681,0.57905 -30.21156,0.0988 -30.21156,0.0988 z m 40.86022,-18.71854 1.91741,-0.93699 1.32594,-1.34702 1.32594,-1.34703 0.83224,-1.6905 0.83223,-1.69051 0.12817,-2.66171 0.12817,-2.66171 -0.33471,-1.49564 -0.33471,-1.49563 -0.89134,-1.3934 -0.89135,-1.39341 -1.25353,-1.20108 -1.25352,-1.20109 -1.59188,-0.77427 -1.59188,-0.77427 -1.93815,-0.3123 -1.93814,-0.3123 -1.7632,0.32488 -1.7632,0.32488 -1.54573,0.82387 -1.54574,0.82387 -1.43931,1.59049 -1.43931,1.59049 -0.64947,1.33772 -0.64946,1.33772 -0.3277,1.9353 -0.3277,1.93531 0.44247,2.13982 0.44247,2.13982 0.72691,1.43672 0.72691,1.43672 1.48088,1.36732 1.48087,1.36732 1.33947,0.72463 1.33947,0.72463 1.42487,0.25289 1.42487,0.2529 2.11667,-0.12072 2.11667,-0.12073 z m -7.77419,-5.13725 -1.09428,-0.4868 -0.94316,-1.23522 -0.94317,-1.23523 -0.17794,-1.18658 -0.17794,-1.18658 0.14558,-1.08532 0.14557,-1.08533 0.75429,-1.07322 0.75428,-1.07321 1.10782,-0.77861 1.10781,-0.7786 1.47133,-0.12201 1.47133,-0.12202 1.17145,0.44738 1.17145,0.44738 0.80664,0.91872 0.80665,0.91872 0.39631,0.9485 0.39631,0.94851 v 1.19376 1.19376 l -0.30201,1.008 -0.302,1.008 -0.75601,0.91717 -0.75601,0.91717 -1.14219,0.55292 -1.14219,0.55293 -1.43782,-0.0187 -1.43781,-0.0187 z m 3.83404,-3.29243 0.7291,-0.37703 0.31609,-0.69375 0.3161,-0.69375 v -0.54318 -0.54317 l -0.89959,-0.89959 -0.89958,-0.89958 h -0.54317 -0.54318 l -0.64484,0.29381 -0.64484,0.29381 -0.33062,0.61776 -0.33062,0.61777 0.15879,0.97845 0.15878,0.97845 0.58576,0.62351 0.58577,0.62352 h 0.62847 0.62848 z m -19.73923,-1.91383 3.37343,-0.17205 0.004,-1.08365 0.004,-1.08365 0.35679,-1.51611 0.35679,-1.51611 -0.95624,-0.18048 -0.95623,-0.18049 -8.2461,-0.0232 -8.2461,-0.0232 -0.17393,0.17385 -0.17393,0.17385 0.45629,0.88237 0.45629,0.88238 0.12739,1.7804 0.12739,1.78041 3.33843,0.0824 3.33844,0.0824 1.71979,0.0564 1.71979,0.0564 z m -31.15469,5.23638 -1.05834,-0.48245 -0.89587,-0.75616 -0.89587,-0.75616 -0.3609,-0.86375 -0.3609,-0.86375 v -1.74143 -1.74143 l 0.37656,-0.72819 0.37657,-0.72819 1.18695,-1.0941 1.18696,-1.0941 1.13735,-0.30625 1.13734,-0.30626 1.06945,0.17098 1.06945,0.17098 1.09459,0.64142 1.09459,0.64143 0.56854,0.9636 0.56854,0.9636 0.27568,1.28549 0.27569,1.28548 -0.42451,1.46027 -0.42451,1.46026 -0.85058,0.96876 -0.85058,0.96875 -1.0606,0.48182 -1.0606,0.48182 h -1.05834 -1.05833 z m 3.98077,-3.85953 0.64944,-0.64943 v -0.89195 -0.89195 l -0.59532,-0.53915 -0.59531,-0.53916 -0.48824,-0.2592 -0.48825,-0.25921 -0.63913,0.12218 -0.63914,0.12218 -0.65856,0.78265 -0.65855,0.78265 v 0.49642 0.49642 l 0.29476,0.64694 0.29477,0.64695 0.56513,0.27364 0.56513,0.27363 0.87192,0.0179 0.87192,0.0179 z m -11.513131,-26.76612 -0.308354,-1.55633 -0.643706,-2.73316 -0.643706,-2.73315 -5.01e-4,-0.17726 -5e-4,-0.17726 3.1755,0.0817 3.175498,0.0817 v 4.21777 4.21778 h -0.62264 -0.62265 l -1.600293,0.16726 -1.600294,0.16727 z m 10.105801,-2.97799 0.0724,-4.39917 1.32292,-0.0876 1.32291,-0.0876 2.11667,0.17165 2.11667,0.17166 -0.0781,4.30742 -0.0781,4.30742 -3.43385,0.008 -3.43385,0.008 z m 12.11093,-0.041 v -4.50538 l 3.60203,0.0736 3.60203,0.0736 0.0569,4.43177 0.0569,4.43177 h -3.65893 -3.65894 z m 12.88185,3.91007 -0.14009,-0.59531 -0.0262,-3.90261 -0.0262,-3.9026 h 3.57722 3.57723 v 4.49792 4.49791 h -3.4109 -3.4109 z m 12.51894,-3.83646 7.9e-4,-4.43177 3.4388,-0.002 3.43879,-0.002 v 4.43333 4.43333 h -3.43958 -3.43959 z m 12.43463,0.19844 v -4.23334 l -3.2e-4,-0.19843 -3.1e-4,-0.19844 3.14353,-0.0169 3.14354,-0.0169 -0.11909,1.07524 -0.11909,1.07525 -0.52276,2.91041 -0.52275,2.91042 -0.13795,0.46302 -0.13796,0.46302 h -2.36342 -2.36342 z m -63.49301,-11.8648 -0.304145,-1.80318 -0.617392,-2.42643 -0.617393,-2.42643 h 4.73472 4.73472 v 4.071 4.071 l -1.12448,0.15561 -1.124479,0.1556 -2.688703,0.003 -2.688702,0.003 z m 13.48683,-2.48885 -7e-5,-4.16719 h 3.02107 3.02107 l 0.41851,-0.16059 0.41852,-0.1606 v 4.39225 4.39226 l -3.43952,-0.0645 -3.43951,-0.0645 z m 12.17076,0.0662 v -4.23334 l 3.63802,1.4e-4 3.63803,1.3e-4 0.0891,4.2332 0.0891,4.2332 h -3.72709 -3.72709 z m 12.91107,-3.7e-4 -0.0788,-4.2337 3.50572,3.7e-4 3.50573,3.6e-4 v 4.23334 4.23333 h -3.42695 -3.42695 z m 12.43513,-0.13525 -0.0785,-4.36896 0.35237,0.13562 0.35237,0.13562 h 3.15336 3.15336 v 4.23334 4.23333 h -3.42724 -3.42724 z m 12.43578,0.14264 -0.0788,-4.24109 4.32546,3.7e-4 4.32546,3.6e-4 -0.18926,1.6306 -0.18925,1.63059 -0.44723,2.53659 -0.44724,2.5366 -3.61012,0.0735 -3.61012,0.0735 z m -65.728494,-9.7144 -0.562142,-0.11032 -0.329654,-1.63959 -0.329655,-1.63959 -0.743294,-2.84427 -0.743293,-2.84427 h 6.331444 6.331448 l 0.002,2.4474 0.002,2.44739 0.16992,2.18282 0.16992,2.18281 -4.86786,-0.036 -4.867862,-0.036 z m 15.687494,0.006 -0.17639,-0.17639 v -4.45382 -4.45382 h 3.57187 3.57188 v 4.63021 4.63021 h -3.39549 -3.39549 z m 12.42579,-0.41892 -0.15954,-0.59532 -0.004,-4.03489 -0.004,-4.0349 h 3.70417 3.70417 v 4.63021 4.63021 h -3.54102 -3.54102 z m 12.79759,-1.12448 -0.002,-1.5875 -0.17067,-2.96174 -0.17066,-2.96175 3.6119,-0.081 3.61189,-0.081 0.003,4.10104 0.003,4.10104 0.14236,0.52917 0.14235,0.52917 h -3.58457 -3.58458 z m 12.43564,-2.9087 v -4.63193 h 2.61276 2.61276 l 0.82683,-0.16536 0.82682,-0.16537 -1e-5,4.72943 -1e-5,4.72943 -3.43957,0.0679 -3.43958,0.0679 z m 12.43542,0.004 v -4.63631 l 4.43177,-0.003 4.43177,-0.003 0.99869,-0.16506 0.9987,-0.16505 -0.16772,1.42697 -0.16771,1.42697 -0.56639,3.30506 -0.5664,3.30506 -4.69635,0.0722 -4.69636,0.0722 z M 113.39764,124.3795 v -0.16927 l 0.46302,-0.34208 0.46302,-0.34209 -0.33073,-0.33531 -0.33073,-0.33531 v -0.85751 -0.85751 l -0.22829,-0.14109 -0.22829,-0.14109 -0.32666,-1.16672 -0.32666,-1.16672 -0.70182,-0.34516 -0.70182,-0.34516 1.19062,-0.15544 1.19063,-0.15544 1.5875,-0.59866 1.5875,-0.59865 2.64433,-1.77574 2.64432,-1.77574 1.28856,-1.5875 1.28856,-1.5875 0.82962,-1.71979 0.82961,-1.71979 v -2.81818 -2.81818 l 0.41259,0.22081 0.41259,0.22081 1.84151,1.93863 1.84151,1.93863 0.78137,1.58478 0.78137,1.58478 0.007,3.43959 0.007,3.43958 -0.59532,1.53128 -0.59531,1.53128 v 0.27841 0.27841 l 2.3151,-0.18066 2.31511,-0.18066 1.83741,-0.40517 1.8374,-0.40518 1.82659,-1.09156 1.82659,-1.09157 1.94994,-2.03876 1.94993,-2.03876 0.39803,-0.95261 0.39802,-0.9526 0.31477,-1.52397 0.31477,-1.52396 -0.29369,-0.84248 -0.29369,-0.84248 h 0.21054 0.21055 l 1.50634,1.57924 1.50634,1.57924 0.70659,1.52961 0.7066,1.52962 0.10326,1.7347 0.10326,1.73471 -0.68013,1.9557 -0.68013,1.95571 0.1181,0.1181 0.1181,0.1181 1.1895,-0.45428 1.1895,-0.45427 0.76557,-0.97299 0.76556,-0.97298 0.54411,-1.07421 0.5441,-1.0742 0.43266,-1.6697 0.43266,-1.66969 0.005,-2.41826 0.005,-2.41825 -0.39845,-1.71701 -0.39845,-1.71702 -0.80221,-1.787332 -0.80221,-1.787333 0.83831,0.433507 0.83831,0.433507 4.5289,4.528831 4.52891,4.52882 2.45178,2.64584 2.45178,2.64583 -0.15044,1.19062 -0.15044,1.19063 -0.66573,3.70417 -0.66572,3.70416 -0.002,0.72761 -0.002,0.7276 H 141.3104 113.39686 Z m -4.23334,-13.37319 v -0.66608 l -0.27509,-0.78913 -0.27509,-0.78914 -0.32022,-0.0471 -0.32022,-0.0471 -1.19058,-0.077 -1.19058,-0.077 -0.46774,0.543 -0.46774,0.54299 0.42474,-1.11063 0.42473,-1.11064 -0.0893,-1.73419 -0.0893,-1.73419 0.1323,6.9e-4 0.13229,6.8e-4 1.12025,1.30084 1.12026,1.30084 0.65133,1.22499 0.65133,1.22499 0.17852,1.19043 0.17852,1.19043 -0.16417,0.16417 -0.16417,0.16416 z m 28.5155,-5.97056 -0.12207,-3.37344 -0.59946,-1.71979 -0.59947,-1.719791 -0.75561,-1.587501 -0.75562,-1.5875 0.41785,0.592365 0.41785,0.592364 0.73861,-0.436309 0.73861,-0.436308 0.76856,0.318347 0.76855,0.318347 2.47274,2.309023 2.47274,2.309023 -0.46073,1.38713 -0.46073,1.38713 -1.07509,1.60997 -1.0751,1.60997 -1.21763,0.89364 -1.21762,0.89365 -0.16715,0.007 -0.16716,0.007 z m -24.01758,0.40855 v -2.48019 l -0.41007,-1.57694 -0.41006,-1.576941 -0.74727,-1.497 -0.74727,-1.496999 1.27668,0.917208 1.27669,0.917209 2.183,2.077173 2.183,2.07717 -0.30583,0.67123 -0.30583,0.67122 -0.97581,1.08011 -0.9758,1.0801 -1.02072,0.80842 -1.02071,0.80842 z"
         id="path1" /></g></g></svg>
