<?xml version="1.0" encoding="UTF-8" standalone="no"?>
<!-- Created with Inkscape (http://www.inkscape.org/) -->

<svg
   width="240mm"
   height="240mm"
   viewBox="0 0 240 240"
   version="1.1"
   id="svg1"
   xml:space="preserve"
   inkscape:export-filename="finfire-favicon.png"
   inkscape:export-xdpi="50.799999"
   inkscape:export-ydpi="50.799999"
   inkscape:version="1.3.2 (091e20e, 2023-11-25)"
   sodipodi:docname="finfire.svg"
   xmlns:inkscape="http://www.inkscape.org/namespaces/inkscape"
   xmlns:sodipodi="http://sodipodi.sourceforge.net/DTD/sodipodi-0.dtd"
   xmlns="http://www.w3.org/2000/svg"
   xmlns:svg="http://www.w3.org/2000/svg"><sodipodi:namedview
     id="namedview1"
     pagecolor="#ffffff"
     bordercolor="#111111"
     borderopacity="1"
     inkscape:showpageshadow="0"
     inkscape:pageopacity="0"
     inkscape:pagecheckerboard="1"
     inkscape:deskcolor="#d1d1d1"
     inkscape:document-units="mm"
     inkscape:zoom="0.78239463"
     inkscape:cx="396.21949"
     inkscape:cy="518.91972"
     inkscape:window-width="1920"
     inkscape:window-height="1027"
     inkscape:window-x="2"
     inkscape:window-y="26"
     inkscape:window-maximized="0"
     inkscape:current-layer="g9" /><defs
     id="defs1" /><g
     inkscape:label="Layer 1"
     inkscape:groupmode="layer"
     id="layer1"><g
       id="g9"
       transform="matrix(1.7906473,0,0,1.7906473,-58.763074,-78.412745)"><path
         style="fill:#d3b46c"
         d="m 94.424859,175.84106 -1.362949,-0.18674 -4.414453,-1.07537 -4.414452,-1.07538 -4.3501,-1.90781 -4.350099,-1.9078 -2.593357,-1.68238 -2.593357,-1.68238 -3.732006,-3.43445 -3.732007,-3.43445 -2.801642,-3.52557 -2.801642,-3.52557 -2.459473,-5.11479 -2.459473,-5.11478 -1.208416,-4.24411 -1.208416,-4.24411 0.02084,-8.63201 0.02084,-8.63201 0.997477,-3.99282 0.997477,-3.99281 1.800753,-4.09208 1.800752,-4.09208 2.384986,-3.446427 2.384986,-3.446428 0.648454,-0.96238 0.648453,-0.96238 2.986077,-3.094829 2.986077,-3.09483 3.180215,-2.574656 3.180214,-2.574657 2.953056,-2.483134 2.953057,-2.483135 2.431422,-2.296656 2.431422,-2.296656 1.759851,-2.350664 1.759851,-2.350664 0.919786,-3.319159 0.919785,-3.319159 -0.0025,-3.643663 -0.0025,-3.643662 -0.459423,-1.654016 -0.459422,-1.654016 0.434712,-1.14338 0.434712,-1.143379 1.371696,-0.301275 1.371696,-0.301275 2.857975,1.386832 2.857974,1.386832 2.498742,1.890485 2.49874,1.890486 2.43408,3.283585 2.43408,3.283585 1.32614,2.425028 1.32613,2.425028 0.66937,2.583171 0.66936,2.583171 v 3.461125 3.461124 l -0.8585,3.060885 -0.85849,3.060885 -1.45867,2.826447 -1.45866,2.826448 -3.36179,3.650857 -3.36179,3.650857 v 0.474202 0.474202 l 1.57551,0.658293 1.57552,0.658292 h 1.50361 1.50361 l 1.1233,-0.748621 1.1233,-0.748622 1.9688,-1.863698 1.96879,-1.863697 1.55216,-2.318606 1.55215,-2.318606 v -0.692547 -0.692546 l 0.62793,-1.532012 0.62792,-1.532011 0.31994,-3.525963 0.31994,-3.525964 0.83953,-0.449304 0.83954,-0.449305 h 1.30248 1.30248 l 2.70265,1.760408 2.70266,1.760407 3.59917,3.123494 3.59917,3.123493 2.6573,3.407373 2.6573,3.407372 1.64984,3.180215 1.64985,3.180215 1.54611,3.861685 1.5461,3.86169 0.88177,3.36058 0.88177,3.36058 0.64172,4.13564 0.64171,4.13564 0.0533,3.40738 0.0533,3.40737 -0.93587,5.4518 -0.93587,5.45179 -0.95701,2.95306 -0.95701,2.95305 -1.36093,2.72126 -1.36093,2.72126 -2.6194,3.86633 -2.6194,3.86633 -3.1116,3.2048 -3.1116,3.2048 -3.63454,2.53514 -3.63453,2.53515 -2.49874,1.34612 -2.49874,1.34613 -3.86168,1.391 -3.86169,1.39099 -4.44237,0.95 -4.44237,0.95 -3.735327,-0.0681 -3.735323,-0.0681 z m 21.580031,-25.6165 1.5901,-0.9486 1.70369,-1.77652 1.70368,-1.77653 v -0.87813 -0.87814 l -0.44307,-1.16537 -0.44307,-1.16537 h -0.99213 -0.99213 l -2.0195,2.15801 -2.0195,2.158 -0.83401,1.3247 -0.83402,1.3247 0.66585,1.28762 0.66586,1.28762 0.32907,-0.002 0.32907,-0.002 z m -32.029307,-2.00649 1.362949,-0.3246 1.427629,-0.0301 1.427629,-0.0301 1.446706,1.21732 1.446705,1.21733 1.441671,-0.0101 1.44167,-0.0101 0.969039,-0.78495 0.969039,-0.78495 0.604413,-1.13579 0.604414,-1.13579 0.243813,-4.08863 0.243813,-4.08864 1.590107,-0.51809 1.59011,-0.51809 5.80654,-0.42608 5.80653,-0.42609 1.21531,-0.90736 1.21531,-0.90736 0.35898,-1.38534 0.35898,-1.38533 0.68329,-0.56709 0.68329,-0.56708 0.002,-0.73942 0.002,-0.73943 0.90026,-1.47652 0.90026,-1.47653 h 1.10377 1.10378 l 1.6288,-2.21887 1.6288,-2.21887 v -0.93997 -0.93997 l 0.50969,-1.11865 0.5097,-1.11866 -1.41898,-2.48011 -1.41898,-2.48012 -3.31071,-3.14484 -3.3107,-3.14485 -2.25402,-1.26201 -2.25402,-1.26201 -3.86169,-0.9221 -3.86168,-0.9221 -5.678959,0.20961 -5.678954,0.2096 -3.634531,1.49795 -3.634531,1.49794 -1.817265,1.25454 -1.817265,1.25455 -2.785944,2.87762 -2.785944,2.87762 -0.720459,1.36295 -0.720459,1.36295 -0.953203,1.95065 -0.953202,1.95065 -0.597361,2.36535 -0.597361,2.36536 0.134704,5.67895 0.134704,5.67896 0.932312,2.95999 0.932312,2.96 1.718369,2.83856 1.718368,2.83856 2.035729,1.34643 2.035729,1.34642 0.917327,-1.07928 0.917328,-1.07928 z m 6.948607,-0.0166 -1.229088,-0.66717 -0.472065,-1.6998 -0.472065,-1.69981 -0.0025,-4.44384 -0.0025,-4.44384 -0.567895,-0.17496 -0.567895,-0.17495 -1.260926,-0.27666 -1.260926,-0.27666 -0.897077,-0.89708 -0.897077,-0.89707 v -1.13579 -1.13579 l 0.908633,-0.90864 0.908633,-0.90863 h 1.563294 1.563295 l 0.348047,-0.56315 0.348047,-0.56315 -0.07825,-2.73065 -0.07825,-2.73064 0.428566,-1.60179 0.428566,-1.60179 2.46903,-0.50881 1.335904,-1.64195 2.639286,-0.38082 0.939599,0.94116 6.640124,-3.03087 7.58439,0.17964 1.01262,0.54193 1.01262,0.54194 0.29018,1.15618 0.29018,1.15618 -0.50639,1.11141 -0.50639,1.11141 -1.17095,0.4452 -1.17095,0.44519 h -6.9567 -6.956697 l -0.569231,0.68588 -0.569231,0.68588 0.06262,2.77028 0.06262,2.77027 0.183644,0.29714 0.183645,0.29715 3.599433,1.03019 3.788297,-0.29179 2.94129,0.40654 3.13015,-0.34887 2.54747,-0.32751 1.79205,1.74989 v 1.0032 1.00321 l -1.45247,1.22217 -1.45247,1.22218 -7.29312,-0.15958 -7.293117,-0.15958 -0.279137,5.4518 -0.279137,5.45179 -0.0616,0.50595 -0.0616,0.50594 -1.197744,1.19774 -1.197743,1.19775 -0.505943,-0.0182 -0.505943,-0.0182 z m 47.02755,-68.224506 -1.45043,-0.722485 -0.46477,-1.179304 -0.46476,-1.179304 -0.27586,-1.184845 -0.27586,-1.184846 0.69918,-1.67339 0.69919,-1.673391 1.97464,-0.873477 1.97464,-0.873476 1.70726,0.523973 1.70726,0.523973 1.10377,1.311753 1.10376,1.311752 v 1.573349 1.573349 l -0.87219,1.709639 -0.87219,1.709638 -1.19361,0.543844 -1.19361,0.543845 -1.22799,-0.02906 -1.22799,-0.02905 z m -14.32445,-12.169719 -1.67485,-1.13809 -0.47251,-1.701387 -0.4725,-1.701388 -0.003,-0.590456 -0.003,-0.590457 0.67046,-1.296527 0.67046,-1.296526 1.62005,-1.001242 1.62004,-1.001241 2.1117,0.316668 2.11169,0.316669 1.47714,1.477133 1.47713,1.477133 0.29856,1.189554 0.29856,1.189553 -0.79677,2.086304 -0.79676,2.086303 -1.57492,0.658044 -1.57492,0.658043 h -1.65632 -1.65632 z"
         id="path12"
         sodipodi:nodetypes="cccccccccccccccccccccccccccccccccccccccccccccccccccccccccccccccccccccccccccccccccccccccccccccccccccccccccccccccccccccccccccccccccccccccccccccccccccccccccccccccccccccccccccccccccccccccccccccccccccccccccccccccccccccccccccccccccccccccccccccccccccccccccccccccccccccccccccccccccccccccccccccccccccccccccccccccccccccccccccccccccccc" /><path
         style="fill:#78aac8"
         d="m 94.424859,175.84106 -1.362949,-0.18674 -4.414453,-1.07537 -4.414452,-1.07538 -4.3501,-1.90781 -4.350099,-1.9078 -2.593357,-1.68238 -2.593357,-1.68238 -3.732006,-3.43445 -3.732007,-3.43445 -2.801642,-3.52557 -2.801642,-3.52557 -2.459473,-5.11479 -2.459473,-5.11478 -1.208416,-4.24411 -1.208416,-4.24411 0.02084,-8.63201 0.02084,-8.63201 0.997477,-3.99282 0.997477,-3.99281 1.800753,-4.09208 1.800752,-4.09208 2.384986,-3.446427 2.384986,-3.446428 0.648454,-0.96238 0.648453,-0.96238 2.986077,-3.094829 2.986077,-3.09483 3.180215,-2.574656 3.180214,-2.574657 2.953056,-2.483134 2.953057,-2.483135 2.431422,-2.296656 2.431422,-2.296656 1.759851,-2.350664 1.759851,-2.350664 0.919786,-3.319159 0.919785,-3.319159 -0.0025,-3.643663 -0.0025,-3.643662 -0.459423,-1.654016 -0.459422,-1.654016 0.434712,-1.14338 0.434712,-1.143379 1.371696,-0.301275 1.371696,-0.301275 2.857975,1.386832 2.857974,1.386832 2.498742,1.890485 2.49874,1.890486 2.43408,3.283585 2.43408,3.283585 1.32614,2.425028 1.32613,2.425028 0.66937,2.583171 0.66936,2.583171 v 3.461125 3.461124 l -0.8585,3.060885 -0.85849,3.060885 -1.45867,2.826447 -1.45866,2.826448 -3.36179,3.650857 -3.36179,3.650857 v 0.474202 0.474202 l 1.57551,0.658293 1.57552,0.658292 h 1.50361 1.50361 l 1.1233,-0.748621 1.1233,-0.748622 1.9688,-1.863698 1.96879,-1.863697 1.55216,-2.318606 1.55215,-2.318606 v -0.692547 -0.692546 l 0.62793,-1.532012 0.62792,-1.532011 0.31994,-3.525963 0.31994,-3.525964 0.83953,-0.449304 0.83954,-0.449305 h 1.30248 1.30248 l 2.70265,1.760408 2.70266,1.760407 3.59917,3.123494 3.59917,3.123493 2.6573,3.407373 2.6573,3.407372 1.64984,3.180215 1.64985,3.180215 1.54611,3.861685 1.5461,3.86169 0.88177,3.36058 0.88177,3.36058 0.64172,4.13564 0.64171,4.13564 0.0533,3.40738 0.0533,3.40737 -0.93587,5.4518 -0.93587,5.45179 -0.95701,2.95306 -0.95701,2.95305 -1.36093,2.72126 -1.36093,2.72126 -2.6194,3.86633 -2.6194,3.86633 -3.1116,3.2048 -3.1116,3.2048 -3.63454,2.53514 -3.63453,2.53515 -2.49874,1.34612 -2.49874,1.34613 -3.86168,1.391 -3.86169,1.39099 -4.44237,0.95 -4.44237,0.95 -3.735327,-0.0681 -3.735323,-0.0681 z m 14.992441,-18.08261 3.63453,-1.27931 1.81726,-1.12088 1.81727,-1.12087 3.19944,-3.28943 3.19944,-3.28942 1.45019,-2.72083 1.45019,-2.72083 0.90988,-2.90281 0.90989,-2.9028 0.006,-6.06335 0.006,-6.06335 -0.73796,-2.56866 -0.73796,-2.56867 -1.6472,-2.72589 -1.6472,-2.7259 -3.63453,-3.65826 -3.63453,-3.65827 -2.27158,-1.25935 -2.27159,-1.25935 -3.86169,-0.9221 -3.86168,-0.9221 -5.678959,0.20961 -5.678954,0.2096 -3.634531,1.49795 -3.634531,1.49794 -1.817265,1.25454 -1.817265,1.25455 -2.785944,2.87762 -2.785944,2.87762 -0.720459,1.36295 -0.720459,1.36295 -0.953203,1.95065 -0.953202,1.95065 -0.597361,2.36535 -0.597361,2.36536 0.134704,5.67895 0.134704,5.67896 0.934966,2.95305 0.934966,2.95306 1.711118,2.88248 1.711119,2.88249 2.492403,2.7542 2.492403,2.75419 2.41768,1.54657 2.41768,1.54657 1.909258,0.71019 1.909259,0.71018 2.271581,0.61249 2.271582,0.61248 5.451795,-0.14573 5.4518,-0.14572 z m -18.49311,-9.55703 -1.229088,-0.66717 -0.472065,-1.6998 -0.472065,-1.69981 -0.0025,-4.44384 -0.0025,-4.44384 -0.567895,-0.17496 -0.567895,-0.17495 -1.260926,-0.27666 -1.260926,-0.27666 -0.897077,-0.89708 -0.897077,-0.89707 v -1.13579 -1.13579 l 0.908633,-0.90864 0.908633,-0.90863 h 1.563294 1.563295 l 0.295952,-0.47886 0.295952,-0.47886 0.09079,-3.82954 0.09079,-3.82954 0.929681,-1.25698 0.929681,-1.25697 1.998163,-1.11559 1.998163,-1.11558 6.139287,-0.58893 6.13929,-0.58893 2.44498,0.28781 2.44498,0.28781 0.84881,0.84881 0.84881,0.84881 v 1.08546 1.08546 l -0.86752,1.07254 -0.86751,1.07254 -7.73338,0.14311 -7.73337,0.14312 -0.544722,0.65634 -0.544721,0.65635 0.06332,2.80125 0.06332,2.80125 0.154847,0.15485 0.154846,0.15484 7.75583,0.10614 7.75582,0.10613 1.17162,1.10141 1.17162,1.1014 v 1.01621 1.01622 l -1.45247,1.22217 -1.45247,1.22218 -7.29312,-0.15958 -7.293121,-0.15958 -0.279137,5.4518 -0.279137,5.45179 -0.0616,0.50595 -0.0616,0.50594 -1.197744,1.19774 -1.197743,1.19775 -0.505943,-0.0182 -0.505943,-0.0182 z m 47.02755,-68.224506 -1.45043,-0.722485 -0.46477,-1.179304 -0.46476,-1.179304 -0.27586,-1.184845 -0.27586,-1.184846 0.69918,-1.67339 0.69919,-1.673391 1.97464,-0.873477 1.97464,-0.873476 1.70726,0.523973 1.70726,0.523973 1.10377,1.311753 1.10376,1.311752 v 1.573349 1.573349 l -0.87219,1.709639 -0.87219,1.709638 -1.19361,0.543844 -1.19361,0.543845 -1.22799,-0.02906 -1.22799,-0.02905 z m -14.32445,-12.169719 -1.67485,-1.13809 -0.47251,-1.701387 -0.4725,-1.701388 -0.003,-0.590456 -0.003,-0.590457 0.67046,-1.296527 0.67046,-1.296526 1.62005,-1.001242 1.62004,-1.001241 2.1117,0.316668 2.11169,0.316669 1.47714,1.477133 1.47713,1.477133 0.29856,1.189554 0.29856,1.189553 -0.79677,2.086304 -0.79676,2.086303 -1.57492,0.658044 -1.57492,0.658043 h -1.65632 -1.65632 z"
         id="path11" /><path
         style="fill:#486d8d"
         d="m 94.879175,175.41417 -0.908633,-0.19006 -4.316005,-0.95753 -4.316005,-0.95752 -3.222586,-1.26547 -3.222586,-1.26547 -2.680735,-1.45033 -2.680736,-1.45033 -2.012009,-1.3843 -2.012009,-1.3843 -3.362947,-3.19447 -3.362948,-3.19447 -2.618475,-3.47498 -2.618476,-3.47498 -2.323295,-4.72629 -2.323295,-4.72629 -1.141132,-4.01257 -1.141132,-4.01257 -0.286062,-5.25774 -0.286063,-5.25774 0.525453,-4.58634 0.525453,-4.58634 0.69628,-2.9282 0.696279,-2.92821 1.957972,-4.41605 1.957972,-4.416054 1.973839,-2.815697 1.973839,-2.815696 0.69909,-1.048659 0.69909,-1.048659 3.185843,-3.329511 3.185843,-3.329511 2.847056,-2.271582 2.847056,-2.271582 4.625919,-3.804371 4.62592,-3.804371 1.817265,-2.209182 1.817266,-2.209181 0.949528,-1.25551 0.949527,-1.255509 0.852247,-2.271582 0.852248,-2.271582 0.01549,-7.49622 0.01549,-7.49622 1.485017,-0.142997 1.485018,-0.142997 2.376671,1.097402 2.376671,1.097402 2.594692,1.998651 2.59469,1.998652 2.18497,2.953056 2.18497,2.953057 1.42573,2.531972 1.42573,2.531972 0.72293,2.434388 0.72294,2.434388 v 3.595728 3.595728 l -0.74003,2.568663 -0.74002,2.568663 -1.28473,2.560399 -1.28473,2.560399 -1.34948,1.982765 -1.34947,1.982764 -2.30473,2.254504 -2.30472,2.254503 v 0.796148 0.796147 l 0.90214,0.48281 0.90214,0.482809 2.16449,0.413849 2.1645,0.41385 1.59011,-1.081914 1.5901,-1.081913 2.08639,-1.956764 2.08638,-1.956763 1.17667,-1.817266 1.17667,-1.817265 0.89331,-2.725898 0.89331,-2.725899 0.32026,-3.302979 0.32025,-3.30298 0.83173,-0.445131 0.83173,-0.44513 h 1.08781 1.0878 l 3.82597,2.674457 3.82596,2.674456 3.03076,3.118078 3.03076,3.118077 1.79532,2.298647 1.79532,2.298648 2.27453,4.516098 2.27454,4.516095 1.14311,3.18022 1.14312,3.18021 0.70904,2.49874 0.70905,2.49874 0.44077,2.95306 0.44077,2.95306 0.29625,4.54316 0.29625,4.54316 -0.94564,5.51069 -0.94564,5.51069 -0.85714,2.66701 -0.85713,2.667 -1.11219,2.50228 -1.11219,2.50228 -2.63407,4.08531 -2.63408,4.08531 -3.403,3.49887 -3.403,3.49887 -1.87354,1.25876 -1.87355,1.25876 -1.18307,0.94978 -1.18307,0.94978 -3.61789,1.88224 -3.61789,1.88223 -3.14958,1.11832 -3.14957,1.11833 -4.72001,0.94625 -4.72,0.94625 -3.457692,-0.0527 -3.457691,-0.0527 z m 2.486008,-9.68201 0.668742,-0.42292 -0.668742,-0.19225 -0.668743,-0.19224 -3.63453,-0.91444 -3.634531,-0.91444 -2.356957,-0.9127 -2.356956,-0.9127 -2.413365,-1.44145 -2.413365,-1.44146 -1.590108,-1.07011 -1.590107,-1.07011 -1.281531,-1.28603 -1.281531,-1.28602 -2.186661,-3.22402 -2.18666,-3.22403 -0.336664,-1.06073 -0.336665,-1.06074 -0.850188,-1.39419 -0.850188,-1.3942 -0.0017,-0.81762 -0.0017,-0.81761 -0.690846,-1.33595 -0.690847,-1.33595 -0.223034,-6.7056 -0.223034,-6.70561 0.428314,-1.36295 0.428314,-1.36295 1.349983,-3.52545 1.349984,-3.52546 2.061935,-3.30824 2.061935,-3.30824 2.70224,-2.47979 2.702241,-2.47979 0.618257,-0.47311 0.618258,-0.47312 2.12628,-1.45773 2.12628,-1.457728 h 0.277826 0.277826 l 3.04769,-1.422246 3.04769,-1.422245 2.725898,-2.270405 2.725898,-2.270406 2.798293,-2.613704 2.798296,-2.613704 1.80334,-2.893551 1.80334,-2.893552 0.78767,-2.429018 0.78766,-2.429018 -0.21011,-4.385728 -0.21011,-4.385727 -1.48047,-3.384961 -1.48047,-3.384961 -2.29533,-3.077078 -2.295337,-3.077079 -1.734383,-1.14776 -1.734382,-1.14776 h -0.464057 -0.464057 v 3.572522 3.572521 l -0.443947,2.340925 -0.443948,2.340925 -1.54502,3.28646 -1.54502,3.28646 -2.440617,2.788502 -2.440617,2.788501 -3.180214,2.683128 -3.180215,2.683128 -3.407372,2.690235 -3.407373,2.690235 -4.092443,4.104678 -4.092444,4.104677 -2.111732,3.180215 -2.111731,3.180219 -1.651487,3.29425 -1.651486,3.29426 -0.971158,3.52049 -0.971158,3.52049 -0.02641,8.17769 -0.02641,8.1777 0.589017,3.18021 0.589017,3.18022 0.617474,1.81726 0.617473,1.81727 1.494064,3.18021 1.494064,3.18022 1.36104,2.04442 1.36104,2.04442 4.242999,4.25889 4.243,4.25889 0.186582,-0.18658 0.186583,-0.18659 -1.565608,-1.70895 -1.565608,-1.70896 -0.285905,-1.13913 -0.285904,-1.13913 1.043391,-1.11064 1.043391,-1.11064 h 0.666037 0.666037 l 3.382697,3.43802 3.382696,3.43801 2.573239,1.66608 2.573238,1.66609 1.817266,0.86379 1.817265,0.8638 3.861689,1.0523 3.861689,1.05231 0.908633,0.0147 0.908632,0.0147 z m 12.052117,-7.97371 3.63453,-1.27931 1.81726,-1.12088 1.81727,-1.12087 3.19944,-3.28943 3.19944,-3.28942 1.45019,-2.72083 1.45019,-2.72083 0.90988,-2.90281 0.90989,-2.9028 0.006,-6.18886 0.006,-6.18886 -1.16409,-3.56611 -1.1641,-3.5661 -1.56055,-2.56895 -1.56055,-2.56894 -3.08051,-2.89569 -3.08052,-2.89569 -1.80464,-0.90472 -1.80464,-0.90472 -0.68147,-0.49968 -0.68148,-0.49969 -3.63453,-0.79265 -3.63453,-0.79265 -5.224636,0.0105 -5.224638,0.0105 -2.875699,0.9298 -2.875699,0.9298 -2.773688,1.47836 -2.773689,1.47836 -3.139442,2.99359 -3.139442,2.99359 -1.300085,2.23655 -1.300085,2.23655 -0.855614,1.81727 -0.855615,1.81726 -0.360395,1.59011 -0.360396,1.59011 -0.125972,5.45179 -0.125972,5.4518 0.887999,3.56123 0.887999,3.56124 1.202649,2.22678 1.20265,2.22677 1.844029,2.19872 1.844028,2.19872 2.044423,1.83041 2.044424,1.83042 1.982752,1.23849 1.982752,1.2385 1.878937,0.69948 1.878937,0.69949 2.271581,0.61249 2.271582,0.61248 5.451795,-0.14573 5.4518,-0.14572 z m -18.688184,-10.381 -1.247671,-1.0732 -0.197046,-5.62797 -0.197046,-5.62796 -0.511462,-0.33378 -0.511461,-0.33378 -0.960943,-0.007 -0.960944,-0.007 -1.197059,-0.9416 -1.197059,-0.94161 v -1.0324 -1.03241 l 0.795053,-0.71834 0.795054,-0.71834 1.817265,-0.14712 1.817266,-0.14713 0.257998,-4.39181 0.257999,-4.3918 1.244849,-1.63208 1.244849,-1.63208 1.733978,-0.88461 1.733978,-0.88461 6.544366,-0.29148 6.54437,-0.29147 1.90973,0.51423 1.90972,0.51424 0.46204,0.86333 0.46205,0.86334 v 0.50483 0.50483 l -1.11514,1.11514 -1.11514,1.11515 -7.17614,0.007 -7.17613,0.007 -0.499882,0.33378 -0.499882,0.33378 -0.515128,0.97889 -0.515128,0.97889 0.05202,2.30906 0.05202,2.30907 0.508672,0.61841 0.508672,0.61842 5.224646,-0.4094 5.22463,-0.40941 2.38866,0.17523 2.38865,0.17524 1.1323,1.06373 1.1323,1.06374 v 1.02363 1.02362 l -1.24937,0.99798 -1.24937,0.99798 -7.35068,-0.29187 -7.350684,-0.29186 -0.274517,0.44418 -0.274518,0.44418 -0.01473,3.96795 -0.01473,3.96795 -0.384164,2.05633 -0.384164,2.05633 -0.998993,0.80893 -0.998992,0.80894 h -0.378651 -0.378651 z m 41.934004,-28.03937 -1.10554,-3.37105 -0.25723,-2.3725 -0.25722,-2.37251 0.40106,-0.24786 0.40105,-0.24787 2.1584,-0.40323 2.15839,-0.40323 1.16576,0.45028 1.16575,0.45029 2.15801,0.34746 2.158,0.34746 v -0.59145 -0.59146 l -0.63742,-2.40733 -0.63742,-2.40733 -0.97614,-2.27158 -0.97614,-2.27158 -1.60305,-3.180215 -1.60304,-3.180215 -1.20219,-1.590107 -1.20218,-1.590108 -3.83078,-3.982632 -3.83077,-3.982633 -1.50995,-0.933202 -1.50995,-0.933201 -0.42765,0.264301 -0.42765,0.264302 -0.29575,1.471318 -0.29576,1.471318 -1.10121,2.960259 -1.10122,2.960258 -1.799,2.26438 -1.799,2.26438 -0.92456,1.203703 -0.92457,1.203703 -0.2577,0.671555 -0.2577,0.671555 3.00472,1.406081 3.00472,1.40608 3.72372,3.81531 3.72373,3.81532 1.93084,3.46632 1.93084,3.46632 v 0.69734 0.69734 l 0.63782,1.00623 0.63782,1.00623 0.32322,2.04442 0.32322,2.04442 0.28833,0.45432 0.28833,0.45432 0.13631,-1.17212 0.1363,-1.17212 z m 5.27472,-39.931124 -1.46433,-0.892842 -0.32387,-1.263463 -0.32386,-1.263462 -0.006,-1.534092 -0.006,-1.534092 1.46098,-1.305386 1.46098,-1.305385 h 1.6055 1.6055 l 1.32692,0.686177 1.32692,0.686177 0.46778,0.874063 0.46779,0.874063 v 1.415378 1.415378 l -0.67888,1.312808 -0.67888,1.312809 -1.01232,0.709054 -1.01231,0.709053 -1.37544,-0.0017 -1.37544,-0.0017 z m -14.42093,-12.326 -1.60591,-1.410013 v -2.4186 -2.418601 l 1.70368,-1.420642 1.70369,-1.420642 2.04442,0.287178 2.04443,0.287178 1.04016,0.668309 1.04017,0.66831 0.75319,1.579446 0.75318,1.579446 -0.68802,1.919268 -0.68801,1.919268 -1.55965,0.794348 -1.55966,0.794348 -1.68787,7.06e-4 -1.68788,7.06e-4 z"
         id="path10" /><path
         style="fill:#233b53"
         d="m 94.424859,174.96455 -0.908633,-0.22317 -3.861689,-0.92968 -3.861689,-0.92968 -2.953056,-1.04278 -2.953056,-1.04277 -3.861689,-2.14236 -3.861689,-2.14235 -2.725898,-2.17875 -2.725898,-2.17874 -1.851547,-1.96791 -1.851547,-1.96791 -2.371973,-3.08372 -2.371973,-3.08373 -2.426377,-4.86681 -2.426377,-4.86681 -0.97637,-3.28449 -0.97637,-3.2845 -0.368672,-3.06234 -0.368671,-3.06235 0.386659,-6.60118 0.386659,-6.60117 0.705913,-3.18022 0.705914,-3.18021 1.84441,-4.5288 1.84441,-4.5288 2.332058,-3.36799 2.332058,-3.367992 0.648755,-0.96238 0.648755,-0.96238 2.745493,-2.839477 2.745493,-2.839477 h 0.550404 0.550405 l 0.293829,0.925773 0.293829,0.925774 -2.648374,2.83265 -2.648375,2.83265 -1.628389,2.03411 -1.628389,2.03411 -1.795436,3.180219 -1.795435,3.18021 -1.040576,2.43674 -1.040575,2.43673 -0.873817,4.5077 -0.873817,4.5077 v 4.30288 4.30289 l 0.67068,4.4266 0.67068,4.42659 0.658498,2.50483 0.658499,2.50483 1.536796,3.20676 1.536797,3.20675 1.082779,1.78464 1.08278,1.78463 1.597736,1.97962 1.597736,1.97962 2.971941,2.86822 2.971941,2.86822 2.195374,1.67551 2.195373,1.67552 5.073688,2.40615 5.073688,2.40615 1.853047,0.49412 1.853046,0.49412 3.59875,0.60784 3.598749,0.60783 3.180214,-0.1351 3.180212,-0.1351 1.59011,-0.0194 1.59011,-0.0194 1.81726,-0.61468 1.81727,-0.61468 2.49874,-0.55622 2.49874,-0.55622 2.04442,-0.92945 2.04442,-0.92945 1.94202,-0.83693 1.94201,-0.83693 1.01104,-1.04328 1.01105,-1.04328 1.81726,-1.17572 1.81727,-1.17572 2.38567,-2.15092 2.38567,-2.15093 -0.25345,-0.41009 -0.25345,-0.41009 -1.22692,0.63446 -1.22692,0.63447 -2.37359,2.37359 -2.37359,2.37358 -3.30203,1.76986 -3.30204,1.76987 -3.31896,1.58084 -3.31896,1.58085 h -0.60437 -0.60438 l -1.3013,0.67868 -1.3013,0.67868 -0.51227,0.003 -0.51226,0.003 -0.56558,-0.68147 -0.56557,-0.68148 0.56557,-0.68147 0.56558,-0.68147 h 0.76214 0.76214 l 0.50056,-0.50057 0.50057,-0.50057 3.72015,-1.52281 3.72014,-1.5228 2.21372,-1.42054 2.21372,-1.42054 3.85757,-4.05365 3.85758,-4.05365 1.65306,-2.83814 1.65306,-2.83813 0.94585,-1.02221 0.94585,-1.02221 h 0.77645 0.77645 l 0.22189,0.84851 0.22189,0.84852 1.39737,0.20509 1.39737,0.20509 0.70531,-0.39471 0.70531,-0.3947 v -0.58634 -0.58633 l 1.32171,-2.68489 1.32172,-2.68488 0.8056,-5.22464 0.80561,-5.22464 0.007,-4.08885 0.007,-4.08884 -0.74535,-5.4518 -0.74535,-5.4518 -0.52979,-1.5901 -0.52979,-1.59011 -1.1242,-2.89872 -1.12419,-2.89872 -1.60614,-3.007392 -1.60615,-3.007394 -1.77782,-2.332645 -1.77782,-2.332645 -4.22383,-4.086168 -4.22382,-4.086168 -1.0428,-0.330971 -1.0428,-0.330971 -0.39091,0.616513 -0.39091,0.616513 -0.27497,1.590107 -0.27496,1.590107 -0.98109,2.691929 -0.98109,2.691929 -1.93085,2.006509 -1.93084,2.00651 v 0.436724 0.436724 l -1.13579,1.671467 -1.13579,1.671466 v 0.53319 0.53319 l 3.06663,1.427956 3.06664,1.42795 3.7371,3.89698 3.73711,3.89698 1.91012,3.91779 1.91013,3.9178 0.37543,0.90863 0.37543,0.90864 0.48114,2.27158 0.48114,2.27158 0.45359,3.18022 0.45358,3.18021 -0.26171,1.81727 -0.2617,1.81726 -0.16979,1.36295 -0.1698,1.36295 -0.70493,2.89035 -0.70493,2.89035 -1.16377,2.37867 -1.16378,2.37867 -2.78643,3.74293 -2.78643,3.74292 -2.09791,1.55931 -2.09791,1.55931 -4.54316,2.27088 -4.54317,2.27089 -3.63453,0.94715 -3.63453,0.94715 -3.426411,-0.27612 -3.426415,-0.27613 -3.357769,-0.93048 -3.357769,-0.93049 -3.298091,-1.52381 -3.298092,-1.52381 -2.865741,-2.04971 -2.865741,-2.0497 -1.171207,-1.28579 -1.171208,-1.28578 -2.122586,-3.03447 -2.122586,-3.03447 -0.003,-0.60006 -0.003,-0.60007 -0.902645,-1.36295 -0.902646,-1.36294 -0.003,-0.73731 -0.003,-0.7373 -0.954189,-2.1571 -0.954188,-2.1571 0.159135,-7.37181 0.159135,-7.37181 0.491165,-0.63738 0.491166,-0.63738 1.004058,-2.82382 1.004059,-2.82382 1.847636,-3.08229 1.847636,-3.0823 2.549031,-2.61232 2.54903,-2.61231 0.468538,-0.008 0.468538,-0.008 1.099796,-1.15901 1.099795,-1.15901 4.792599,-2.294398 4.792599,-2.294402 3.875407,-3.310059 3.875407,-3.310059 2.081534,-2.201431 2.08154,-2.201432 1.38662,-2.271582 1.38662,-2.271582 0.83674,-2.49874 0.83674,-2.49874 -0.0328,-4.088847 -0.0328,-4.088848 -1.04777,-2.710748 -1.04778,-2.710748 -1.05186,-1.832416 -1.05186,-1.832415 -0.66644,-1.39136 -0.66645,-1.391359 -1.74596,-1.788855 -1.745946,-1.788855 -1.631591,-0.866423 -1.631591,-0.866422 -0.799502,0.306797 -0.799502,0.306798 0.254992,1.90111 0.254993,1.90111 -0.432513,3.806401 -0.432513,3.8064 -1.013139,2.362501 -1.01314,2.362502 -1.362949,2.127247 -1.362949,2.127248 -0.84366,0.01659 -0.84366,0.01659 0.325036,-0.795054 0.325036,-0.795054 0.42293,-1.463962 0.42293,-1.463962 0.689655,-0.385951 0.689656,-0.38595 0.673687,-2.920409 0.673688,-2.92041 0.266301,-3.756684 0.266302,-3.756684 -0.54578,-2.774146 -0.54578,-2.774146 0.473776,-0.473776 0.473776,-0.473776 1.945426,0.559483 1.945426,0.559482 2.980643,2.005112 2.980642,2.005111 2.9801,3.316573 2.9801,3.316574 1.29001,2.486388 1.29001,2.486388 0.80667,2.49874 0.80667,2.49874 0.002,3.634531 0.002,3.634531 -0.68018,2.271582 -0.68017,2.271581 -1.43453,2.953057 -1.43454,2.953056 -1.17417,1.56037 -1.17417,1.56037 -2.38516,2.506576 -2.38516,2.506576 v 0.730122 0.730122 l 0.5679,0.710223 0.56789,0.710223 1.54433,0.512401 1.54432,0.512401 h 1.60065 1.60064 l 2.53399,-2.194452 2.53398,-2.194452 1.24937,-0.810855 1.24937,-0.810855 V 91.697117 90.929 l 1.13579,-1.539478 1.13579,-1.539478 v -0.6916 -0.691601 l 0.65551,-1.832454 0.6555,-1.832455 0.29224,-3.094196 0.29224,-3.094196 1.10872,-0.505163 1.10871,-0.505163 1.47535,0.703546 1.47535,0.703545 3.67912,2.772306 3.67913,2.772307 2.51085,2.712013 2.51084,2.712013 1.39258,1.954658 1.39258,1.954658 2.06276,3.970059 2.06276,3.970058 1.17952,3.071841 1.17953,3.07185 1.09998,4.316 1.09998,4.31601 0.47506,5.91342 0.47507,5.91342 -0.94231,5.67165 -0.94232,5.67165 -0.88509,2.81418 -0.8851,2.81419 -1.20879,2.41045 -1.20879,2.41045 -2.08978,3.40737 -2.08979,3.40738 -3.60001,3.95445 -3.60002,3.95446 -3.91189,2.68322 -3.9119,2.68321 -2.81895,1.42262 -2.81894,1.42262 -3.06763,1.15465 -3.06763,1.15466 -3.65407,0.72036 -3.65407,0.72036 -4.77032,0.13943 -4.770315,0.13944 z m 14.310961,-16.5244 2.95306,-1.02885 2.5014,-1.28842 2.50139,-1.28843 2.55736,-2.624 2.55737,-2.62401 1.66106,-2.21724 1.66106,-2.21724 0.70033,-1.64445 0.70034,-1.64445 0.89373,-2.8536 0.89374,-2.8536 -0.15539,-6.68704 -0.15539,-6.68704 -0.68556,-2.29361 -0.68556,-2.29361 -1.66889,-2.98425 -1.66888,-2.98425 -3.91572,-3.70655 -3.91573,-3.70656 -1.43401,-0.66068 -1.43402,-0.66067 -0.68147,-0.42274 -0.68148,-0.42273 -3.47832,-0.94836 -3.47832,-0.94836 -6.22913,0.21344 -6.229128,0.21344 -2.455142,0.91859 -2.455142,0.91859 -2.206244,1.11799 -2.206244,1.11798 -3.735662,3.76869 -3.735663,3.76868 -0.749629,1.41568 -0.749629,1.41568 -1.196251,2.21885 -1.196252,2.21886 -0.492309,2.49874 -0.49231,2.49874 0.161036,5.67895 0.161036,5.67896 0.730307,2.62617 0.730307,2.62618 0.972623,1.9065 0.972623,1.9065 1.696802,2.29687 1.696803,2.29688 3.125272,2.73772 3.125272,2.73772 1.590108,0.90712 1.590107,0.90711 3.180214,0.97856 3.180215,0.97857 0.908632,0.22193 0.908633,0.22193 5.451795,-0.14601 5.4518,-0.14602 z m -17.773888,-11.30608 -1.064848,-0.86226 -0.234852,-5.82948 -0.234853,-5.82949 -1.362949,-0.39494 -1.362949,-0.39494 -1.135791,-0.5383 -1.135791,-0.53829 -0.148454,-1.03204 -0.148454,-1.03203 0.54482,-0.65647 0.54482,-0.65647 1.193741,-0.006 1.193742,-0.006 1.022211,-0.27395 1.022212,-0.27394 v -3.92937 -3.92937 l 0.843076,-1.58302 0.843077,-1.58301 1.996401,-1.21123 1.9964,-1.21123 6.911499,-0.30609 6.91151,-0.30608 1.58522,0.52317 1.58522,0.52317 0.25917,0.81656 0.25916,0.81656 -0.29942,0.78028 -0.29942,0.78028 -1.1034,0.41951 -1.10341,0.41952 h -6.97935 -6.979355 l -0.985041,1.24937 -0.985041,1.24937 0.173372,3.09332 0.173371,3.09331 0.50594,0.31406 0.505941,0.31405 7.345443,-0.40645 7.34545,-0.40646 1.21858,0.90636 1.21858,0.90635 0.13967,0.93462 0.13968,0.93463 -1.04831,0.99893 -1.0483,0.99893 -7.30386,-0.30335 -7.303859,-0.30335 -0.471602,0.5958 -0.471602,0.59579 -0.269464,5.62925 -0.269463,5.62924 -1.007018,1.07192 -1.007018,1.07192 h -0.324792 -0.324791 z m 46.946248,-68.409827 -1.33655,-1.124635 -0.27022,-1.665134 -0.27021,-1.665135 0.48929,-0.958341 0.48929,-0.95834 0.96904,-0.784952 0.96904,-0.784951 1.66883,-0.0101 1.66883,-0.0101 1.3978,1.176177 1.39781,1.176177 v 1.572283 1.572283 l -0.68618,1.326919 -0.68617,1.32692 -0.87407,0.467785 -0.87406,0.467784 h -1.35796 -1.35796 z m -13.37344,-11.39578 -1.23795,-0.67181 -0.46574,-0.87024 -0.46574,-0.870241 v -1.664856 -1.664857 l 1.45989,-1.363738 1.45989,-1.363738 2.28822,0.28522 2.28822,0.28522 1.24937,1.357726 1.24937,1.357725 v 0.748806 0.748806 l -0.76162,1.726264 -0.76163,1.726264 -1.35059,0.470819 -1.35059,0.470819 -1.18158,-0.01819 -1.18157,-0.01819 z"
         id="path9" /></g></g></svg>
