<?xml version="1.0" encoding="UTF-8" standalone="no"?>
<!-- Created with Inkscape (http://www.inkscape.org/) -->

<svg
   width="725.82104mm"
   height="283.76575mm"
   viewBox="0 0 725.82105 283.76575"
   version="1.1"
   id="svg1"
   xml:space="preserve"
   inkscape:export-filename="finfire-favicon.png"
   inkscape:export-xdpi="50.799999"
   inkscape:export-ydpi="50.799999"
   inkscape:version="1.3.2 (091e20e, 2023-11-25)"
   sodipodi:docname="finfire-wide.svg"
   xmlns:inkscape="http://www.inkscape.org/namespaces/inkscape"
   xmlns:sodipodi="http://sodipodi.sourceforge.net/DTD/sodipodi-0.dtd"
   xmlns="http://www.w3.org/2000/svg"
   xmlns:svg="http://www.w3.org/2000/svg"><sodipodi:namedview
     id="namedview1"
     pagecolor="#ffffff"
     bordercolor="#111111"
     borderopacity="1"
     inkscape:showpageshadow="0"
     inkscape:pageopacity="0"
     inkscape:pagecheckerboard="1"
     inkscape:deskcolor="#d1d1d1"
     inkscape:document-units="mm"
     inkscape:zoom="0.39187386"
     inkscape:cx="1597.4528"
     inkscape:cy="870.17798"
     inkscape:window-width="1920"
     inkscape:window-height="1027"
     inkscape:window-x="1920"
     inkscape:window-y="25"
     inkscape:window-maximized="1"
     inkscape:current-layer="g9"
     showguides="false" /><defs
     id="defs1" /><g
     inkscape:label="Layer 1"
     inkscape:groupmode="layer"
     id="layer1"
     transform="translate(-10.308139,-7.0752318)"><g
       id="g9"
       transform="matrix(1.7906473,0,0,1.7906473,-58.763074,-78.412745)"><path
         style="fill:#d3b46c;stroke-width:1.21478"
         d="m 92.608807,205.82019 -1.655678,-0.22685 -5.362573,-1.30633 -5.362571,-1.30635 -5.284399,-2.31756 -5.284397,-2.31755 -3.150348,-2.04371 -3.150349,-2.04372 -4.533552,-4.17209 -4.533554,-4.17209 -3.403368,-4.28277 -3.403368,-4.28278 -2.987709,-6.21333 -2.98771,-6.21331 -1.467955,-5.15565 -1.467955,-5.15564 0.02532,-10.48596 0.02532,-10.48596 1.211711,-4.85039 1.211712,-4.85037 2.187512,-4.97096 2.18751,-4.97096 2.897225,-4.18663 2.897224,-4.18664 0.787727,-1.16908 0.787725,-1.16907 3.627415,-3.759529 3.627416,-3.759526 3.86325,-3.127636 3.863248,-3.127623 3.587302,-3.01646 3.587304,-3.016447 2.953634,-2.789928 2.953633,-2.789928 2.137826,-2.855526 2.137825,-2.855531 1.117334,-4.032036 1.117333,-4.032035 -0.003,-4.426236 -0.003,-4.426234 -0.558096,-2.009259 -0.558095,-2.00926 0.528078,-1.38895 0.528078,-1.38895 1.666304,-0.365982 1.666303,-0.365982 3.4718,1.684691 3.471799,1.684691 3.035412,2.296516 3.03541,2.296517 2.95686,3.988822 2.95686,3.988821 1.61097,2.945866 1.61095,2.945867 0.81313,3.137974 0.81312,3.137975 v 4.204493 4.204486 l -1.04288,3.718297 -1.04287,3.718284 -1.77196,3.433504 -1.77195,3.433505 -4.08382,4.434979 -4.08382,4.43496 v 0.57606 0.57605 l 1.91389,0.79968 1.91391,0.79967 h 1.82655 1.82654 l 1.36456,-0.9094 1.36456,-0.90941 2.39165,-2.26398 2.39164,-2.26398 1.88552,-2.81658 1.88552,-2.81659 v -0.841282 -0.841293 l 0.76279,-1.861049 0.76279,-1.86105 0.38865,-4.283264 0.38866,-4.283253 1.01984,-0.545799 1.01985,-0.545811 h 1.58222 1.58223 l 3.28311,2.138504 3.28313,2.138505 4.37218,3.794341 4.37219,3.794342 3.22802,4.139204 3.22803,4.139195 2.00419,3.86324 2.00419,3.86326 1.87818,4.69107 1.87817,4.69109 1.07115,4.08236 1.07115,4.08235 0.77955,5.02388 0.77954,5.02387 0.0647,4.13921 0.0648,4.13919 -1.13687,6.62272 -1.13688,6.6227 -1.16255,3.58731 -1.16255,3.58729 -1.65323,3.30573 -1.65322,3.30572 -3.18199,4.69672 -3.18198,4.69673 -3.7799,3.89312 -3.7799,3.89311 -4.41515,3.07963 -4.41514,3.07964 -3.03541,1.63523 -3.03541,1.63525 -4.69108,1.68975 -4.69109,1.68975 -5.39648,1.15403 -5.39648,1.15404 -4.537589,-0.0827 -4.537582,-0.0827 z m 26.214903,-31.11832 1.93162,-1.15233 2.0696,-2.15808 2.06959,-2.15808 v -1.06673 -1.06675 l -0.53823,-1.41566 -0.53823,-1.41567 h -1.20522 -1.20521 l -2.45325,2.6215 -2.45324,2.62149 -1.01313,1.60922 -1.01315,1.60921 0.80886,1.56417 0.80887,1.56417 0.39975,-0.002 0.39974,-0.002 z m -38.908436,-2.43743 1.655678,-0.39432 1.73425,-0.0366 1.73425,-0.0366 1.757424,1.47877 1.757423,1.47879 1.751308,-0.0123 1.751306,-0.0123 1.177166,-0.95354 1.177165,-0.95354 0.734227,-1.37973 0.734228,-1.37973 0.296178,-4.96677 0.296178,-4.96678 1.931625,-0.62937 1.93163,-0.62936 7.05364,-0.51759 7.05363,-0.51761 1.47633,-1.10224 1.47633,-1.10223 0.43608,-1.68288 0.43608,-1.68287 0.83005,-0.68889 0.83004,-0.68887 0.002,-0.89823 0.002,-0.89824 1.09362,-1.79365 1.09361,-1.79365 h 1.34084 1.34084 l 1.97863,-2.69543 1.97863,-2.69543 v -1.14185 -1.14186 l 0.61916,-1.35891 0.61917,-1.35892 -1.72375,-3.01278 -1.72374,-3.01279 -4.02177,-3.82027 -4.02176,-3.82029 -2.73813,-1.53306 -2.73813,-1.53306 -4.69109,-1.12015 -4.69107,-1.12014 -6.898668,0.25463 -6.898658,0.25461 -4.415142,1.81968 -4.415142,1.81966 -2.20757,1.52398 -2.207571,1.524 -3.384298,3.49567 -3.384299,3.49566 -0.875197,1.65568 -0.875196,1.65568 -1.157928,2.3696 -1.157928,2.36961 -0.72566,2.87337 -0.72566,2.87338 0.163636,6.89865 0.163635,6.89867 1.13255,3.59573 1.132551,3.59573 2.087434,3.44822 2.087432,3.44821 2.472956,1.63562 2.472955,1.63559 1.114347,-1.31108 1.114348,-1.31108 z m 8.441003,-0.0202 -1.493067,-0.81046 -0.573453,-2.06488 -0.573453,-2.06488 -0.003,-5.39828 -0.003,-5.39827 -0.689866,-0.21253 -0.689865,-0.21253 -1.531743,-0.33608 -1.531743,-0.33608 -1.089748,-1.08975 -1.089748,-1.08974 v -1.37973 -1.37973 l 1.103786,-1.1038 1.103786,-1.10378 h 1.899052 1.899054 l 0.422799,-0.6841 0.422799,-0.6841 -0.09506,-3.31713 -0.09506,-3.31712 0.520612,-1.94581 0.520612,-1.94582 2.999319,-0.61809 1.622824,-1.9946 3.206142,-0.46261 1.141403,1.1433 8.066271,-3.68183 9.21333,0.21822 1.23011,0.65832 1.2301,0.65834 0.35251,1.4045 0.3525,1.4045 -0.61515,1.35011 -0.61515,1.35012 -1.42244,0.54082 -1.42244,0.5408 h -8.45083 -8.450838 l -0.691489,0.83319 -0.691488,0.83319 0.07607,3.36527 0.07607,3.36526 0.223086,0.36096 0.223088,0.36097 4.372505,1.25145 4.601936,-0.35446 3.57301,0.49386 3.80243,-0.4238 3.0946,-0.39785 2.17694,2.12572 v 1.21867 1.21867 l -1.76442,1.48466 -1.76442,1.48468 -8.85951,-0.19385 -8.859512,-0.19386 -0.339089,6.62272 -0.339089,6.6227 -0.07483,0.61462 -0.07483,0.6146 -1.454991,1.45499 -1.45499,1.455 -0.614608,-0.0221 -0.614607,-0.0221 z m 57.127943,-82.8775 -1.76194,-0.877664 -0.5646,-1.432586 -0.56458,-1.432597 -0.3351,-1.439316 -0.33511,-1.439327 0.84935,-2.032795 0.84936,-2.032794 2.39874,-1.061083 2.39875,-1.061073 2.07394,0.636509 2.07393,0.636506 1.34084,1.593495 1.34082,1.593483 v 1.911268 1.911268 l -1.05952,2.07683 -1.05951,2.076818 -1.44997,0.660656 -1.44997,0.660644 -1.49173,-0.03535 -1.49174,-0.03523 z m -17.401,-14.783491 -2.03457,-1.382525 -0.57399,-2.066804 -0.57398,-2.066806 -0.004,-0.717272 -0.004,-0.717273 0.81446,-1.57499 0.81446,-1.574989 1.968,-1.216285 1.96798,-1.216284 2.56524,0.384681 2.56524,0.384682 1.79439,1.794386 1.79438,1.794386 0.36269,1.445042 0.36268,1.445041 -0.9679,2.534392 -0.96788,2.534392 -1.91318,0.799376 -1.91317,0.799375 h -2.01206 -2.01206 z"
         id="path12"
         sodipodi:nodetypes="cccccccccccccccccccccccccccccccccccccccccccccccccccccccccccccccccccccccccccccccccccccccccccccccccccccccccccccccccccccccccccccccccccccccccccccccccccccccccccccccccccccccccccccccccccccccccccccccccccccccccccccccccccccccccccccccccccccccccccccccccccccccccccccccccccccccccccccccccccccccccccccccccccccccccccccccccccccccccccccccccccc" /><path
         style="fill:#78aac8;stroke-width:1.21478"
         d="m 92.608807,205.82019 -1.655678,-0.22685 -5.362573,-1.30633 -5.362571,-1.30635 -5.284399,-2.31756 -5.284397,-2.31755 -3.150348,-2.04371 -3.150349,-2.04372 -4.533552,-4.17209 -4.533554,-4.17209 -3.403368,-4.28277 -3.403368,-4.28278 -2.987709,-6.21333 -2.98771,-6.21331 -1.467955,-5.15565 -1.467955,-5.15564 0.02532,-10.48596 0.02532,-10.48596 1.211711,-4.85039 1.211712,-4.85037 2.187512,-4.97096 2.18751,-4.97096 2.897225,-4.18663 2.897224,-4.18664 0.787727,-1.16908 0.787725,-1.16907 3.627415,-3.759529 3.627416,-3.759526 3.86325,-3.127636 3.863248,-3.127623 3.587302,-3.01646 3.587304,-3.016447 2.953634,-2.789928 2.953633,-2.789928 2.137826,-2.855526 2.137825,-2.855531 1.117334,-4.032036 1.117333,-4.032035 -0.003,-4.426236 -0.003,-4.426234 -0.558096,-2.009259 -0.558095,-2.00926 0.528078,-1.38895 0.528078,-1.38895 1.666304,-0.365982 1.666303,-0.365982 3.4718,1.684691 3.471799,1.684691 3.035412,2.296516 3.03541,2.296517 2.95686,3.988822 2.95686,3.988821 1.61097,2.945866 1.61095,2.945867 0.81313,3.137974 0.81312,3.137975 v 4.204493 4.204486 l -1.04288,3.718297 -1.04287,3.718284 -1.77196,3.433504 -1.77195,3.433505 -4.08382,4.434979 -4.08382,4.43496 v 0.57606 0.57605 l 1.91389,0.79968 1.91391,0.79967 h 1.82655 1.82654 l 1.36456,-0.9094 1.36456,-0.90941 2.39165,-2.26398 2.39164,-2.26398 1.88552,-2.81658 1.88552,-2.81659 v -0.841282 -0.841293 l 0.76279,-1.861049 0.76279,-1.86105 0.38865,-4.283264 0.38866,-4.283253 1.01984,-0.545799 1.01985,-0.545811 h 1.58222 1.58223 l 3.28311,2.138504 3.28313,2.138505 4.37218,3.794341 4.37219,3.794342 3.22802,4.139204 3.22803,4.139195 2.00419,3.86324 2.00419,3.86326 1.87818,4.69107 1.87817,4.69109 1.07115,4.08236 1.07115,4.08235 0.77955,5.02388 0.77954,5.02387 0.0647,4.13921 0.0648,4.13919 -1.13687,6.62272 -1.13688,6.6227 -1.16255,3.58731 -1.16255,3.58729 -1.65323,3.30573 -1.65322,3.30572 -3.18199,4.69672 -3.18198,4.69673 -3.7799,3.89312 -3.7799,3.89311 -4.41515,3.07963 -4.41514,3.07964 -3.03541,1.63523 -3.03541,1.63525 -4.69108,1.68975 -4.69109,1.68975 -5.39648,1.15403 -5.39648,1.15404 -4.537589,-0.0827 -4.537582,-0.0827 z m 18.212463,-21.96632 4.41513,-1.55408 2.20757,-1.36162 2.20757,-1.3616 3.88661,-3.99593 3.8866,-3.99591 1.76166,-3.3052 1.76166,-3.30519 1.1053,-3.52627 1.10531,-3.52625 0.007,-7.36562 0.007,-7.36561 -0.89646,-3.12035 -0.89646,-3.12036 -2.00098,-3.31134 -2.00098,-3.31136 -4.41514,-4.44397 -4.41514,-4.44398 -2.75946,-1.52983 -2.75947,-1.52982 -4.69109,-1.12015 -4.69107,-1.12015 -6.898668,0.25463 -6.898659,0.25462 -4.415142,1.81968 -4.415142,1.81966 -2.20757,1.52398 -2.207571,1.524 -3.384298,3.49566 -3.384299,3.49567 -0.875196,1.65568 -0.875197,1.65568 -1.157928,2.3696 -1.157927,2.3696 -0.72566,2.87338 -0.72566,2.87338 0.163635,6.89865 0.163635,6.89867 1.135775,3.58729 1.135774,3.58731 2.078626,3.50157 2.078626,3.50158 3.027712,3.34574 3.027712,3.34572 2.936941,1.87874 2.93694,1.87873 2.319321,0.86273 2.319323,0.86271 2.759462,0.74403 2.759464,0.74403 6.622711,-0.17703 6.62272,-0.17702 z m -22.464993,-11.60966 -1.493067,-0.81046 -0.573453,-2.06488 -0.573453,-2.06489 -0.003,-5.39827 -0.003,-5.39827 -0.689866,-0.21254 -0.689865,-0.21252 -1.531743,-0.33608 -1.531743,-0.33608 -1.089748,-1.08975 -1.089748,-1.08974 v -1.37973 -1.37973 l 1.103786,-1.1038 1.103786,-1.10378 h 1.899052 1.899054 l 0.359515,-0.58171 0.359516,-0.5817 0.110289,-4.65204 0.11029,-4.65203 1.129354,-1.52695 1.129355,-1.52694 2.427321,-1.35519 2.427321,-1.35518 7.45786,-0.71542 7.45786,-0.71542 2.9701,0.34963 2.9701,0.34962 1.03112,1.03111 1.03111,1.03112 v 1.31859 1.31859 l -1.05384,1.3029 -1.05383,1.30289 -9.39432,0.17385 -9.394315,0.17386 -0.661715,0.79731 -0.661714,0.79731 0.07692,3.4029 0.07692,3.40289 0.188105,0.18811 0.188103,0.18809 9.421606,0.12894 9.42158,0.12892 1.42325,1.33797 1.42326,1.33795 v 1.23447 1.23448 l -1.76443,1.48466 -1.76442,1.48468 -8.85951,-0.19385 -8.859511,-0.19386 -0.339089,6.62272 -0.339089,6.6227 -0.07483,0.61462 -0.07483,0.6146 -1.454991,1.45499 -1.45499,1.455 -0.614608,-0.0221 -0.614607,-0.0221 z m 57.127943,-82.877501 -1.76194,-0.877664 -0.5646,-1.432585 -0.56458,-1.432598 -0.3351,-1.439316 -0.33511,-1.439327 0.84935,-2.032795 0.84936,-2.032794 2.39874,-1.061083 2.39875,-1.061073 2.07394,0.636509 2.07393,0.636506 1.34084,1.593495 1.34082,1.593483 v 1.911268 1.911268 l -1.05952,2.07683 -1.05951,2.076818 -1.44997,0.660656 -1.44997,0.660644 -1.49173,-0.03535 -1.49174,-0.03523 z m -17.401,-14.783491 -2.03457,-1.382524 -0.57399,-2.066805 -0.57398,-2.066806 -0.004,-0.717272 -0.004,-0.717273 0.81446,-1.57499 0.81446,-1.574989 1.968,-1.216285 1.96798,-1.216284 2.56524,0.384681 2.56524,0.384682 1.79439,1.794386 1.79438,1.794386 0.36269,1.445042 0.36268,1.445041 -0.9679,2.534393 -0.96788,2.534391 -1.91318,0.799376 -1.91317,0.799375 h -2.01206 -2.01206 z"
         id="path11" /><path
         style="fill:#486d8d;stroke-width:1.21478"
         d="m 93.160699,205.30162 -1.103786,-0.23089 -5.24298,-1.16318 -5.242981,-1.16317 -3.914721,-1.53727 -3.91472,-1.53726 -3.256494,-1.76182 -3.256494,-1.76183 -2.444141,-1.68162 -2.444141,-1.68161 -4.085228,-3.88057 -4.085229,-3.88056 -3.180862,-4.22133 -3.180862,-4.22132 -2.822284,-5.74138 -2.822283,-5.74139 -1.38622,-4.87437 -1.38622,-4.87438 -0.347502,-6.38698 -0.347502,-6.38697 0.638307,-5.57138 0.638308,-5.57138 0.845825,-3.55711 0.845823,-3.55712 2.378498,-5.36451 2.378498,-5.36451 2.397773,-3.42045 2.397772,-3.42043 0.849238,-1.27389 0.849238,-1.27389 3.870087,-4.04461 3.870086,-4.044605 3.458536,-2.759474 3.458536,-2.759461 5.619457,-4.621459 5.619458,-4.621458 2.20757,-2.683659 2.207572,-2.683665 1.153464,-1.525163 1.153462,-1.525163 1.03529,-2.759464 1.035291,-2.759464 0.01882,-9.10623 0.01882,-9.10623 1.803964,-0.173709 1.803964,-0.17371 2.887124,1.333098 2.887123,1.333098 3.151977,2.427914 3.15196,2.427915 2.65425,3.587302 2.65425,3.587304 1.73195,3.075779 1.73194,3.07578 0.8782,2.957237 0.8782,2.957236 v 4.368009 4.368007 l -0.89896,3.120348 -0.89896,3.120347 -1.56066,3.110313 -1.56066,3.110313 -1.63932,2.40861 -1.6393,2.408624 -2.79973,2.73871 -2.79972,2.73873 v 0.96713 0.96714 l 1.0959,0.58651 1.0959,0.5865 2.62937,0.50274 2.62938,0.50273 1.93163,-1.31429 1.93161,-1.31427 2.5345,-2.37703 2.53448,-2.37704 1.42939,-2.20756 1.42939,-2.207579 1.08517,-3.311346 1.08518,-3.311359 0.38904,-4.012381 0.38903,-4.012382 1.01037,-0.540733 1.01036,-0.540734 h 1.32145 1.32143 l 4.6477,3.248859 4.64769,3.24887 3.68169,3.78777 3.6817,3.787757 2.18091,2.792348 2.18091,2.79234 2.76305,5.48605 2.76305,5.48604 1.38863,3.86326 1.38863,3.86324 0.86133,3.03541 0.86133,3.03541 0.53544,3.58731 0.53544,3.58731 0.35987,5.51892 0.35988,5.51892 -1.14874,6.69426 -1.14874,6.69425 -1.04123,3.23982 -1.04122,3.23981 -1.35107,3.03971 -1.35106,3.03971 -3.1998,4.96274 -3.19982,4.96274 -4.13389,4.25034 -4.13388,4.25035 -2.27593,1.52911 -2.27595,1.52911 -1.43716,1.15377 -1.43717,1.15377 -4.39492,2.2865 -4.39493,2.28649 -3.82604,1.35851 -3.82602,1.35852 -5.73375,1.14948 -5.73374,1.14948 -4.200328,-0.064 -4.200321,-0.064 z m 3.019944,-11.76148 0.812372,-0.51375 -0.812372,-0.23354 -0.812373,-0.23353 -4.415141,-1.11084 -4.415142,-1.11084 -2.863176,-1.10873 -2.863174,-1.10873 -2.931698,-1.75104 -2.931699,-1.75105 -1.931625,-1.29994 -1.931625,-1.29995 -1.556773,-1.56223 -1.556773,-1.56223 -2.656304,-3.91646 -2.656303,-3.91648 -0.408971,-1.28855 -0.408973,-1.28856 -1.032788,-1.69363 -1.032789,-1.69364 -0.0021,-0.99323 -0.0021,-0.99321 -0.839223,-1.62288 -0.839225,-1.62288 -0.270936,-8.1458 -0.270936,-8.14582 0.520305,-1.65568 0.520306,-1.65568 1.639927,-4.28263 1.639929,-4.28265 2.504789,-4.01877 2.50479,-4.01877 3.282617,-3.01239 3.282618,-3.01239 0.751044,-0.57472 0.751045,-0.57474 2.582955,-1.77081 2.582954,-1.77082 h 0.337497 0.337496 l 3.702262,-1.7277 3.702261,-1.72772 3.311356,-2.75802 3.311357,-2.75804 3.399299,-3.17507 3.399307,-3.175068 2.19065,-3.515016 2.19066,-3.515016 0.95684,-2.950716 0.95683,-2.950704 -0.25524,-5.32768 -0.25523,-5.327681 -1.79844,-4.11197 -1.79844,-4.111971 -2.78832,-3.737961 -2.788316,-3.737962 -2.106888,-1.394272 -2.106886,-1.394272 h -0.563725 -0.563726 v 4.339815 4.339814 l -0.539296,2.8437 -0.539297,2.8437 -1.876854,3.992314 -1.876854,3.992309 -2.964803,3.387415 -2.964804,3.387404 -3.863248,3.259403 -3.86325,3.25939 -4.139195,3.26804 -4.139196,3.268027 -4.971402,4.986268 -4.971404,4.98627 -2.565282,3.86324 -2.565281,3.86326 -2.006187,4.00177 -2.006186,4.00179 -1.179739,4.27661 -1.17974,4.27661 -0.03208,9.93406 -0.03208,9.93408 0.715524,3.86324 0.715524,3.86326 0.750093,2.20756 0.750091,2.20758 1.814954,3.86324 1.814953,3.86326 1.653359,2.48351 1.65336,2.48351 5.154294,5.1736 5.154296,5.1736 0.226655,-0.22665 0.226657,-0.22667 -1.901864,-2.07599 -1.901863,-2.076 -0.347311,-1.38379 -0.347309,-1.38379 1.267486,-1.34918 1.267487,-1.34918 h 0.809086 0.809086 l 4.10922,4.17643 4.109219,4.17641 3.125909,2.02391 3.125909,2.02393 2.207571,1.04931 2.207571,1.04933 4.691088,1.27831 4.691088,1.27832 1.103786,0.0179 1.103785,0.0179 z m 14.640627,-9.68627 4.41513,-1.55408 2.20757,-1.36162 2.20757,-1.3616 3.88661,-3.99593 3.8866,-3.99591 1.76166,-3.3052 1.76166,-3.30519 1.1053,-3.52627 1.10531,-3.52625 0.007,-7.51808 0.007,-7.51808 -1.41411,-4.33203 -1.41412,-4.33201 -1.89572,-3.1207 -1.89572,-3.12069 -3.74213,-3.51761 -3.74215,-3.51762 -2.19223,-1.09903 -2.19223,-1.09903 -0.82784,-0.607 -0.82784,-0.60702 -4.41514,-0.96289 -4.41514,-0.96289 -6.346763,0.0127 -6.346766,0.0128 -3.493331,1.1295 -3.493331,1.1295 -3.36941,1.79587 -3.369412,1.79588 -3.813719,3.63654 -3.81372,3.63655 -1.579312,2.7169 -1.579313,2.71691 -1.039379,2.20758 -1.039381,2.20756 -0.437799,1.93163 -0.437801,1.93163 -0.153028,6.6227 -0.153027,6.62272 1.07872,4.3261 1.07872,4.32611 1.460949,2.70504 1.460951,2.70502 2.240083,2.67096 2.240081,2.67095 2.483517,2.22354 2.483517,2.22355 2.4086,1.50449 2.408601,1.5045 2.282488,0.84971 2.282488,0.84972 2.759462,0.74404 2.759464,0.74403 6.622711,-0.17703 6.62272,-0.17702 z m -22.701964,-12.6106 -1.515641,-1.30369 -0.239367,-6.83673 -0.239367,-6.83671 -0.621312,-0.40547 -0.62131,-0.40547 -1.167331,-0.008 -1.167332,-0.008 -1.454159,-1.14384 -1.454159,-1.14384 v -1.25414 -1.25415 l 0.965812,-0.87262 0.965812,-0.87262 2.207571,-0.17872 2.207571,-0.17873 0.31341,-5.33506 0.313411,-5.33506 1.512213,-1.98261 1.512213,-1.98261 2.106396,-1.07461 2.106395,-1.0746 7.949938,-0.35408 7.94995,-0.35407 2.31989,0.62467 2.31988,0.62469 0.56128,1.04875 0.56128,1.04877 v 0.61325 0.61326 l -1.35464,1.35464 -1.35464,1.35466 -8.71741,0.008 -8.71739,0.009 -0.607245,0.40546 -0.607245,0.40547 -0.625765,1.18913 -0.625766,1.18914 0.06319,2.80499 0.06319,2.805 0.617922,0.75123 0.617923,0.75124 6.346776,-0.49733 6.34675,-0.49734 2.90169,0.21287 2.90168,0.21288 1.37548,1.29219 1.37549,1.29221 v 1.24348 1.24347 l -1.5177,1.21232 -1.5177,1.21232 -8.92943,-0.35456 -8.929436,-0.35454 -0.333477,0.53958 -0.333478,0.53958 -0.01789,4.82017 -0.01789,4.82017 -0.466674,2.49798 -0.466673,2.49798 -1.213553,0.98267 -1.213552,0.98268 H 90.09491 89.634934 Z m 50.940424,-34.06156 -1.34298,-4.09507 -0.31248,-2.88206 -0.31246,-2.88207 0.4872,-0.30109 0.48718,-0.30111 2.62198,-0.48983 2.62196,-0.48983 1.41613,0.54698 1.41613,0.54701 2.6215,0.42208 2.62149,0.42209 v -0.71848 -0.71849 l -0.77433,-2.92437 -0.77432,-2.92437 -1.18579,-2.75946 -1.18579,-2.75946 -1.94735,-3.86324 -1.94733,-3.86326 -1.4604,-1.93161 -1.46038,-1.93163 -4.65354,-4.838007 -4.65353,-4.838017 -1.83425,-1.133629 -1.83425,-1.133629 -0.5195,0.321065 -0.5195,0.321066 -0.35927,1.787324 -0.35928,1.787325 -1.33772,3.596053 -1.33774,3.596049 -2.18538,2.75072 -2.18538,2.75072 -1.12314,1.46222 -1.12314,1.46223 -0.31305,0.81579 -0.31305,0.81579 3.65006,1.70807 3.65007,1.70807 4.52348,4.63475 4.5235,4.63476 2.34554,4.2108 2.34554,4.21081 v 0.84711 0.84711 l 0.77481,1.22234 0.77481,1.22235 0.39264,2.48351 0.39264,2.48351 0.35025,0.5519 0.35026,0.5519 0.16559,-1.42387 0.16557,-1.42386 z m 6.40761,-48.507375 -1.77883,-1.084601 -0.39343,-1.534833 -0.39342,-1.534821 -0.007,-1.863576 -0.007,-1.863576 1.77476,-1.585757 1.77477,-1.585745 h 1.95032 1.95033 l 1.61191,0.833543 1.61191,0.833555 0.56824,1.061788 0.56827,1.061799 v 1.719358 1.71937 l -0.82469,1.59477 -0.82469,1.594771 -1.22974,0.861337 -1.22973,0.861349 -1.67085,-0.0024 -1.67086,-0.0024 z M 127.94913,73.701001 125.99831,71.98815 v -2.938058 -2.938059 l 2.06959,-1.725762 2.06961,-1.725762 2.48351,0.348857 2.48352,0.348857 1.26357,0.811846 1.26357,0.811847 0.91496,1.918673 0.91494,1.918674 -0.83579,2.331481 -0.83578,2.331481 -1.89462,0.964956 -1.89464,0.964955 -2.05038,8.57e-4 -2.0504,8.58e-4 z"
         id="path10" /><path
         style="fill:#233b53;stroke-width:1.21478"
         d="m 92.608807,204.75543 -1.103786,-0.2711 -4.691088,-1.12936 -4.691088,-1.12935 -3.587303,-1.26675 -3.587302,-1.26673 -4.691088,-2.60249 -4.691088,-2.60247 -3.311356,-2.6467 -3.311357,-2.64668 -2.249215,-2.39057 -2.249215,-2.39057 -2.881417,-3.74603 -2.881416,-3.74604 -2.947505,-5.91208 -2.947506,-5.91209 -1.186071,-3.98992 -1.186071,-3.98993 -0.447854,-3.72006 -0.447853,-3.72007 0.469705,-8.01896 0.469704,-8.01894 0.857526,-3.86326 0.857528,-3.86324 2.240545,-5.50148 2.240546,-5.50148 2.832928,-4.09135 2.832929,-4.09136 0.788092,-1.16907 0.788092,-1.16908 3.33516,-3.44933 3.33516,-3.449324 h 0.668618 0.668619 l 0.356936,1.124603 0.356937,1.124604 -3.217182,3.441037 -3.217183,3.44103 -1.978129,2.47099 -1.978128,2.47099 -2.181053,3.86326 -2.181052,3.86324 -1.264067,2.96009 -1.264066,2.96009 -1.061492,5.47584 -1.061492,5.47585 v 5.22704 5.22705 l 0.814726,5.37732 0.814726,5.37732 0.799928,3.04281 0.799929,3.04281 1.866863,3.89549 1.866865,3.89549 1.315334,2.16793 1.315335,2.16793 1.940892,2.4048 1.940892,2.40479 3.610243,3.48425 3.610244,3.48424 2.666888,2.03537 2.666887,2.03538 6.163396,2.92294 6.163395,2.92293 2.251038,0.60025 2.251036,0.60024 4.371676,0.73839 4.371675,0.73838 3.863249,-0.16412 3.863244,-0.16411 1.93163,-0.0236 1.93163,-0.0236 2.20756,-0.74669 2.20758,-0.7467 3.0354,-0.67569 3.03541,-0.67568 2.48352,-1.12907 2.48351,-1.12908 2.35912,-1.01668 2.35911,-1.01668 1.22818,-1.26735 1.2282,-1.26736 2.20757,-1.42823 2.20757,-1.42824 2.89806,-2.61289 2.89806,-2.61289 -0.30789,-0.49817 -0.30789,-0.49817 -1.49043,0.77073 -1.49043,0.77074 -2.88338,2.88338 -2.88338,2.88337 -4.01123,2.14998 -4.01124,2.15 -4.03179,1.92036 -4.0318,1.92038 h -0.73417 -0.73418 l -1.58079,0.82445 -1.58079,0.82444 -0.62229,0.004 -0.62229,0.004 -0.68705,-0.82783 -0.68704,-0.82785 0.68704,-0.82783 0.68705,-0.82784 h 0.92583 0.92583 l 0.60807,-0.60808 0.60808,-0.60808 4.51915,-1.84987 4.51914,-1.84986 2.68917,-1.72564 2.68917,-1.72564 4.68609,-4.92428 4.6861,-4.92428 2.00809,-3.4477 2.0081,-3.44769 1.149,-1.24176 1.14899,-1.24176 h 0.94322 0.94321 l 0.26955,1.03075 0.26954,1.03077 1.6975,0.24913 1.69749,0.24914 0.85679,-0.47948 0.85679,-0.47947 v -0.71228 -0.71226 l 1.60559,-3.26154 1.60559,-3.26152 0.97862,-6.34677 0.97864,-6.34677 0.008,-4.96704 0.009,-4.96703 -0.90544,-6.62271 -0.90543,-6.62272 -0.64358,-1.93162 -0.64357,-1.93162 -1.36565,-3.5213 -1.36564,-3.5213 -1.9511,-3.6533 -1.95112,-3.65331 -2.15965,-2.83365 -2.15965,-2.83363 -5.13101,-4.963784 -5.131,-4.963783 -1.26677,-0.402054 -1.26677,-0.402055 -0.47486,0.748922 -0.47487,0.748922 -0.33403,1.931628 -0.33401,1.931628 -1.19181,3.270092 -1.1918,3.270094 -2.34555,2.43746 -2.34554,2.43746 v 0.53052 0.53051 l -1.37973,2.03047 -1.37973,2.03046 v 0.64771 0.6477 l 3.72526,1.73464 3.72529,1.73464 4.53974,4.73396 4.53975,4.73396 2.32037,4.75924 2.32038,4.75925 0.45606,1.10378 0.45606,1.10379 0.58448,2.75947 0.58448,2.75946 0.55101,3.86325 0.551,3.86325 -0.31792,2.20757 -0.31791,2.20757 -0.20625,1.65568 -0.20627,1.65568 -0.85634,3.51112 -0.85633,3.51113 -1.41372,2.88955 -1.41373,2.88956 -3.38489,4.54682 -3.38489,4.54681 -2.54849,1.89421 -2.54849,1.89422 -5.51892,2.75861 -5.51893,2.75862 -4.41515,1.15058 -4.41514,1.15057 -4.162319,-0.33542 -4.162327,-0.33544 -4.078938,-1.13032 -4.078938,-1.13034 -4.006443,-1.85109 -4.006444,-1.85109 -3.481234,-2.48994 -3.481234,-2.48992 -1.422755,-1.56195 -1.422755,-1.56194 -2.578467,-3.6862 -2.578468,-3.6862 -0.0036,-0.72894 -0.0036,-0.72895 -1.096512,-1.65568 -1.096513,-1.65567 -0.0036,-0.89566 -0.0036,-0.89566 -1.159127,-2.62039 -1.159125,-2.6204 0.193314,-8.9551 0.193313,-8.9551 0.596656,-0.77427 0.596657,-0.77427 1.219705,-3.43031 1.219708,-3.43031 2.244464,-3.7443 2.244464,-3.7443 3.096503,-3.17338 3.096501,-3.17338 0.569169,-0.01 0.569168,-0.01 1.336006,-1.40794 1.336005,-1.40794 5.821936,-2.78718 5.821935,-2.78718 4.707753,-4.02099 4.707752,-4.02098 2.5286,-2.674244 2.52861,-2.674245 1.68443,-2.759461 1.68443,-2.759462 1.01646,-3.03541 1.01645,-3.03541 -0.0399,-4.967038 -0.0398,-4.967035 -1.27281,-3.292952 -1.27282,-3.292953 -1.27777,-2.225975 -1.27778,-2.225974 -0.80957,-1.690191 -0.80959,-1.69019 -2.120953,-2.173059 -2.120934,-2.173059 -1.982018,-1.05251 -1.982018,-1.052509 -0.971216,0.37269 -0.971216,0.372691 0.309758,2.309423 0.30976,2.309424 -0.525407,4.623925 -0.525406,4.623925 -1.230738,2.86991 -1.230738,2.869911 -1.655678,2.584133 -1.655678,2.584133 -1.024858,0.02016 -1.024859,0.02017 0.394847,-0.96582 0.394846,-0.965808 0.513765,-1.778389 0.513765,-1.778387 0.837777,-0.468844 0.837777,-0.468843 0.818379,-3.547643 0.818381,-3.547645 0.323496,-4.563531 0.323497,-4.56353 -0.663,-3.369967 -0.663001,-3.369967 0.575532,-0.575531 0.575532,-0.575532 2.363257,0.679646 2.363257,0.679646 3.620815,2.435762 3.620817,2.435762 3.62015,4.028894 3.62016,4.028895 1.56707,3.020405 1.56708,3.020405 0.97992,3.03541 0.97992,3.03541 0.002,4.415139 0.002,4.415141 -0.82626,2.759473 -0.82626,2.759462 -1.74263,3.587295 -1.74265,3.587307 -1.42635,1.8955 -1.42635,1.895497 -2.89744,3.04494 -2.89744,3.04492 v 0.88693 0.88695 l 0.68988,0.86275 0.68986,0.86276 1.87601,0.62245 1.876,0.62246 h 1.94444 1.94441 l 3.07824,-2.66577 3.07821,-2.66577 1.5177,-0.985 1.51771,-0.98501 v -0.93322 -0.93309 l 1.37973,-1.87012 1.37973,-1.870115 v -0.840139 -0.84014 l 0.7963,-2.226029 0.79629,-2.226016 0.355,-3.758761 0.35501,-3.758761 1.34684,-0.613656 1.34684,-0.613657 1.79222,0.854644 1.79222,0.854656 4.46931,3.367736 4.46932,3.367725 3.05012,3.294497 3.05011,3.294485 1.69167,2.374471 1.69167,2.37447 2.50579,4.82273 2.5058,4.82274 1.43285,3.73159 1.43286,3.73161 1.33623,5.24298 1.33623,5.24299 0.5771,7.18348 0.5771,7.18348 -1.1447,6.88979 -1.1447,6.88978 -1.07519,3.4186 -1.0752,3.41861 -1.46841,2.92816 -1.46841,2.92816 -2.53861,4.13919 -2.53863,4.1392 -4.37321,4.80378 -4.37322,4.80378 -4.75207,3.25951 -4.75208,3.2595 -3.42439,1.72817 -3.42439,1.72816 -3.72648,1.40264 -3.72648,1.40266 -4.43888,0.87507 -4.43887,0.87508 -5.79488,0.16937 -5.794865,0.16939 z m 17.384613,-20.07345 3.5873,-1.24982 3.03865,-1.56515 3.03863,-1.56515 3.10662,-3.18757 3.10663,-3.18759 2.01781,-2.69345 2.01782,-2.69345 0.85074,-1.99764 0.85076,-1.99764 1.08568,-3.46648 1.0857,-3.46649 -0.18877,-8.12326 -0.18876,-8.12325 -0.8328,-2.78623 -0.8328,-2.78622 -2.02733,-3.6252 -2.02732,-3.62519 -4.75672,-4.50263 -4.75674,-4.50264 -1.742,-0.80258 -1.74201,-0.80257 -0.82784,-0.51353 -0.82784,-0.51352 -4.22538,-1.15205 -4.22538,-1.15204 -7.566998,0.25928 -7.566997,0.25928 -2.982448,1.11588 -2.982448,1.11588 -2.680093,1.35811 -2.680093,1.3581 -4.537993,4.57811 -4.537995,4.5781 -0.910632,1.71974 -0.910631,1.71973 -1.453177,2.69541 -1.453179,2.69542 -0.598045,3.03541 -0.598047,3.03541 0.195623,6.89865 0.195623,6.89867 0.887159,3.19021 0.88716,3.19022 1.181519,2.31597 1.18152,2.31597 2.061234,2.79018 2.061236,2.7902 3.796507,3.32572 3.796506,3.32571 1.931625,1.10195 1.931625,1.10194 3.863248,1.18873 3.86325,1.18874 1.103784,0.2696 1.103786,0.26959 6.622711,-0.17737 6.62272,-0.17738 z m -21.591295,-13.73436 -1.293552,-1.04745 -0.285292,-7.08152 -0.285294,-7.08152 -1.655678,-0.47977 -1.655678,-0.47976 -1.379732,-0.65391 -1.379732,-0.65391 -0.180339,-1.25369 -0.180338,-1.25369 0.661834,-0.79746 0.661835,-0.79747 1.450128,-0.007 1.450129,-0.007 1.241758,-0.33279 1.241759,-0.33278 v -4.7733 -4.77331 l 1.024149,-1.92301 1.02415,-1.92301 2.42518,-1.47137 2.425179,-1.47137 8.395929,-0.37183 8.39593,-0.37182 1.92569,0.63553 1.92569,0.63554 0.31483,0.99193 0.31482,0.99194 -0.36373,0.94787 -0.36373,0.94786 -1.34038,0.50961 -1.34039,0.50963 h -8.47835 -8.478356 l -1.196604,1.5177 -1.196605,1.51771 0.210609,3.75769 0.210607,3.75768 0.614604,0.38151 0.614605,0.3815 8.92307,-0.49375 8.92308,-0.49375 1.48029,1.10102 1.48031,1.10101 0.16966,1.13536 0.16968,1.13536 -1.27346,1.21348 -1.27344,1.21348 -8.87256,-0.36851 -8.872553,-0.3685 -0.572891,0.72377 -0.572891,0.72375 -0.327338,6.83828 -0.327337,6.83826 -1.223302,1.30215 -1.223301,1.30214 h -0.39455 -0.394548 z m 57.029185,-83.102625 -1.62361,-1.366186 -0.32826,-2.02276 -0.32824,-2.022773 0.59438,-1.164168 0.59437,-1.164169 1.17717,-0.953539 1.17717,-0.953538 2.02725,-0.01227 2.02726,-0.01227 1.69801,1.428784 1.69803,1.428795 v 1.909969 1.90998 l -0.83356,1.611911 -0.83354,1.611911 -1.0618,0.568248 -1.06179,0.56826 h -1.64962 -1.64961 z m -16.24574,-13.843329 -1.50383,-0.816099 -0.56577,-1.057147 -0.56577,-1.057148 v -2.022427 -2.022429 l 1.77344,-1.656637 1.77344,-1.656636 2.77967,0.346478 2.77968,0.346479 1.5177,1.649333 1.51771,1.649332 v 0.909632 0.909632 l -0.9252,2.097024 -0.92521,2.097025 -1.64066,0.57194 -1.64067,0.571939 -1.43535,-0.0221 -1.43535,-0.0221 z"
         id="path9" /><text
         xml:space="preserve"
         style="font-size:78.8045px;font-family:Arial;-inkscape-font-specification:Arial;fill:#233b53;fill-opacity:1;stroke:#486d8d;stroke-width:1.11691;stroke-dasharray:none;stroke-opacity:1"
         x="165.1749"
         y="172.88841"
         id="text12"><tspan
           sodipodi:role="line"
           id="tspan12"
           style="font-style:normal;font-variant:normal;font-weight:bold;font-stretch:normal;font-size:78.8045px;font-family:'JetBrainsMono Nerd Font Mono';-inkscape-font-specification:'JetBrainsMono Nerd Font Mono Bold';fill:#233b53;fill-opacity:1;stroke:#486d8d;stroke-width:1.11691;stroke-dasharray:none;stroke-opacity:1"
           x="165.1749"
           y="172.88841">inFire</tspan></text></g></g></svg>
